<svg xmlns="http://www.w3.org/2000/svg" xmlns:xlink="http://www.w3.org/1999/xlink" viewBox="0 0 331.63 64.08"><defs><style>.cls-1{fill:none;opacity:0;}.cls-2{fill:url(#radial-gradient);}.cls-3{opacity:0.7;isolation:isolate;fill:url(#linear-gradient);}.cls-4{fill:url(#linear-gradient-2);}.cls-5{fill:#888D9B;}.cls-6{opacity:0.75;}</style><radialGradient id="radial-gradient" cx="954.69" cy="-1909.35" r="0.28" gradientTransform="matrix(-144.9, 32.65, -39.12, -173.61, 63935.67, -362636.96)" gradientUnits="userSpaceOnUse"><stop offset="0" stop-color="#888D9B"/><stop offset="0.12" stop-color="#888D9B" stop-opacity="0.95"/><stop offset="1" stop-color="#888D9B" stop-opacity="0"/></radialGradient><linearGradient id="linear-gradient" x1="291.66" y1="271.39" x2="291.66" y2="295.22" gradientTransform="translate(0 -244.12)" gradientUnits="userSpaceOnUse"><stop offset="0" stop-color="#888D9B"/><stop offset="1" stop-color="#888D9B" stop-opacity="0.5"/></linearGradient><linearGradient id="linear-gradient-2" x1="297.32" y1="270.81" x2="297.32" y2="305.4" gradientTransform="translate(0 -244.12)" gradientUnits="userSpaceOnUse"><stop offset="0" stop-color="#888D9B"/><stop offset="1" stop-color="#888D9B" stop-opacity="0"/></linearGradient></defs><title>PoweredBy_Gelato_White&amp;amp;Transparent_3</title><g id="Layer_2" data-name="Layer 2"><g id="Layer_1-2" data-name="Layer 1"><rect class="cls-1" width="331.63" height="64.08"/><path class="cls-2" d="M302.08,24.1a.89.89,0,0,1-.92.86h-.09a16.85,16.85,0,0,0-3.62,0,25.69,25.69,0,0,0-6.33,1.66h0l-.33.12a17.9,17.9,0,0,1-6,1.41,12.62,12.62,0,0,1-2.81-.26,2.24,2.24,0,0,1-1.76-1.73,11,11,0,0,1,8.72-13,11.4,11.4,0,0,1,2.1-.2,11,11,0,0,1,11,11v.12Z"/><path class="cls-3" d="M281,29.58A1,1,0,0,0,279.84,31l10.82,19.81a.47.47,0,0,0,.63.18.77.77,0,0,0,.18-.18L303.42,29a1.33,1.33,0,0,0-.49-1.79,1.66,1.66,0,0,0-.37-.14,16.32,16.32,0,0,0-4.93-.27,23.75,23.75,0,0,0-5.91,1.61l-.3.11A19.61,19.61,0,0,1,284.85,30,15,15,0,0,1,281,29.58Z"/><path class="cls-4" d="M291.06,29a.57.57,0,0,1,.36-.52l.3-.11a23.75,23.75,0,0,1,5.91-1.61,16.32,16.32,0,0,1,4.93.27,1.32,1.32,0,0,1,1,1.57,1.58,1.58,0,0,1-.14.36l-11.95,21.9a.46.46,0,0,1-.41.24Z"/><path class="cls-5" d="M216.54,35.76H205.78a.45.45,0,0,0-.45.53,4.11,4.11,0,0,0,1.29,2.41,4.32,4.32,0,0,0,3,1.11,3.71,3.71,0,0,0,3.48-1.89.45.45,0,0,1,.4-.24H216a.45.45,0,0,1,.42.62,6.92,6.92,0,0,1-2.27,2.83,7.38,7.38,0,0,1-4.51,1.34,7.74,7.74,0,0,1-3.92-1A7,7,0,0,1,203,38.72a8.46,8.46,0,0,1-1-4.15,8.68,8.68,0,0,1,1-4.15,6.66,6.66,0,0,1,2.69-2.75,8,8,0,0,1,4-1,7.73,7.73,0,0,1,3.85.94,6.66,6.66,0,0,1,2.64,2.65,7.92,7.92,0,0,1,.94,3.92,10.26,10.26,0,0,1-.06,1.15A.45.45,0,0,1,216.54,35.76Zm-3.27-2.55a.45.45,0,0,0,.45-.5,3.51,3.51,0,0,0-1.22-2.3,4.46,4.46,0,0,0-3-1.05,4,4,0,0,0-2.8,1,4.13,4.13,0,0,0-1.29,2.27.44.44,0,0,0,.44.54Z"/><path class="cls-5" d="M223.32,23.27v18.5a.45.45,0,0,1-.45.45h-2.26a.45.45,0,0,1-.45-.45v-18a.44.44,0,0,1,.35-.44l2.26-.51A.45.45,0,0,1,223.32,23.27Z"/><path class="cls-5" d="M227.38,30.44A7.08,7.08,0,0,1,230,27.68a6.92,6.92,0,0,1,3.64-1,6.68,6.68,0,0,1,3.15.7,6.91,6.91,0,0,1,1.4,1,.45.45,0,0,0,.75-.34h0a.46.46,0,0,1,.35-.44l2.29-.51a.45.45,0,0,1,.55.44V41.77a.45.45,0,0,1-.45.45h-2.29a.45.45,0,0,1-.45-.45v-.66a.45.45,0,0,0-.75-.34,6.63,6.63,0,0,1-1.44,1,7.11,7.11,0,0,1-6.77-.29,7.17,7.17,0,0,1-2.59-2.83,8.65,8.65,0,0,1-1-4.11A8.42,8.42,0,0,1,227.38,30.44Zm10.87,1.39a4.56,4.56,0,0,0-1.7-1.78,4.45,4.45,0,0,0-2.28-.61,4.52,4.52,0,0,0-4,2.34,5.53,5.53,0,0,0-.65,2.74,5.75,5.75,0,0,0,.65,2.77A4.72,4.72,0,0,0,232,39.11a4.5,4.5,0,0,0,4.54,0,4.52,4.52,0,0,0,1.7-1.79,5.58,5.58,0,0,0,.65-2.76A5.45,5.45,0,0,0,238.25,31.83Z"/><path class="cls-5" d="M250.42,29.52A.46.46,0,0,0,250,30v8a1.62,1.62,0,0,0,.4,1.24,2,2,0,0,0,1.37.37h1.49a.45.45,0,0,1,.45.45v1.73a.45.45,0,0,1-.45.45h-2a4.81,4.81,0,0,1-3.27-1A4.12,4.12,0,0,1,246.78,38V30a.46.46,0,0,0-.45-.46h-.9a.45.45,0,0,1-.45-.45V27.4a.46.46,0,0,1,.45-.46h.9a.45.45,0,0,0,.45-.45V24.22a.46.46,0,0,1,.35-.44l2.29-.51a.45.45,0,0,1,.55.44v2.78a.45.45,0,0,0,.45.45h2.81a.46.46,0,0,1,.45.46v1.67a.45.45,0,0,1-.45.45Z"/><path class="cls-5" d="M270.13,30.44a7.1,7.1,0,0,0-2.8-2.77,8.59,8.59,0,0,0-7.93,0,7,7,0,0,0-2.8,2.77,8.14,8.14,0,0,0-1,4.13,8.36,8.36,0,0,0,1,4.15,7.09,7.09,0,0,0,2.74,2.77,7.8,7.8,0,0,0,3.91,1,8.24,8.24,0,0,0,4-1,7.33,7.33,0,0,0,2.87-2.79,8.05,8.05,0,0,0,1-4.13A8.24,8.24,0,0,0,270.13,30.44Zm-2.37,6.83a4.84,4.84,0,0,1-1.88,1.82,5.34,5.34,0,0,1-2.61.64,5.08,5.08,0,0,1-2.55-.64,4.65,4.65,0,0,1-1.79-1.81,5.5,5.5,0,0,1-.65-2.7,5.33,5.33,0,0,1,.67-2.7,4.68,4.68,0,0,1,1.83-1.81,5.62,5.62,0,0,1,5.17,0,4.66,4.66,0,0,1,1.82,1.81,5.72,5.72,0,0,1,0,5.39Z"/><path class="cls-5" d="M192.81,34.23h3.51a.46.46,0,0,1,.45.55,6.52,6.52,0,0,1-2,3.38,6.1,6.1,0,0,1-4.21,1.45,6.69,6.69,0,0,1-3.42-.87,5.94,5.94,0,0,1-2.35-2.46,7.73,7.73,0,0,1-.85-3.69,7.66,7.66,0,0,1,.85-3.68,6,6,0,0,1,2.35-2.45,6.79,6.79,0,0,1,3.42-.86,6.91,6.91,0,0,1,3.27.74,5.26,5.26,0,0,1,1.77,1.55.45.45,0,0,0,.65.09L198,26.59a.47.47,0,0,0,.06-.65,8.58,8.58,0,0,0-2-1.72,10.1,10.1,0,0,0-5.5-1.52,10,10,0,0,0-5,1.27A9.41,9.41,0,0,0,182,27.49a10.49,10.49,0,0,0,0,10.19,9.48,9.48,0,0,0,3.58,3.53,10,10,0,0,0,5,1.26,9.59,9.59,0,0,0,9.58-8.26V32.15a.45.45,0,0,0-.45-.45h-6.87a.45.45,0,0,0-.45.45v1.63A.45.45,0,0,0,192.81,34.23Z"/><g class="cls-6"><path class="cls-5" d="M28,41.73v-19h6.78a7.51,7.51,0,0,1,3.68.81,5.27,5.27,0,0,1,2.18,2.21,7.16,7.16,0,0,1,0,6.3,5.36,5.36,0,0,1-2.19,2.21,7.53,7.53,0,0,1-3.68.81H30.15V32.61h4.4a4.59,4.59,0,0,0,2.28-.49,3,3,0,0,0,1.28-1.33,4.45,4.45,0,0,0,.41-1.93A4.32,4.32,0,0,0,38.11,27a2.87,2.87,0,0,0-1.29-1.31,4.78,4.78,0,0,0-2.31-.48h-3.6V41.73Z"/><path class="cls-5" d="M50.38,42a6.61,6.61,0,0,1-3.51-.92,6.22,6.22,0,0,1-2.32-2.57,8.58,8.58,0,0,1-.83-3.87,8.63,8.63,0,0,1,.83-3.88,6.28,6.28,0,0,1,2.32-2.59,7.14,7.14,0,0,1,7,0,6.21,6.21,0,0,1,2.32,2.59A8.63,8.63,0,0,1,57,34.66a8.58,8.58,0,0,1-.83,3.87,6.16,6.16,0,0,1-2.32,2.57A6.6,6.6,0,0,1,50.38,42Zm0-2.33A3.32,3.32,0,0,0,52.54,39a4.11,4.11,0,0,0,1.27-1.83,7.92,7.92,0,0,0,0-5,4.18,4.18,0,0,0-1.27-1.85,3.73,3.73,0,0,0-4.32,0,4.12,4.12,0,0,0-1.28,1.85,7.92,7.92,0,0,0,0,5A4.06,4.06,0,0,0,48.22,39,3.34,3.34,0,0,0,50.39,39.69Z"/><path class="cls-5" d="M62.78,41.73l-4.2-14.27h2.87l2.8,10.48h.14L67.2,27.46h2.87L72.86,37.9H73l2.78-10.44h2.87L74.45,41.73H71.62l-2.9-10.3h-.21l-2.9,10.3Z"/><path class="cls-5" d="M87,42a6.89,6.89,0,0,1-3.63-.91A6,6,0,0,1,81,38.56a8.55,8.55,0,0,1-.82-3.87A8.67,8.67,0,0,1,81,30.82a6.14,6.14,0,0,1,5.77-3.55,7.21,7.21,0,0,1,2.35.4,5.76,5.76,0,0,1,2,1.26,5.86,5.86,0,0,1,1.42,2.21,9.24,9.24,0,0,1,.52,3.31v1H81.77V33.35h8.62a4.12,4.12,0,0,0-.45-2,3.36,3.36,0,0,0-1.25-1.34,3.49,3.49,0,0,0-1.88-.49,3.64,3.64,0,0,0-2,.57,3.92,3.92,0,0,0-1.34,1.49,4.3,4.3,0,0,0-.46,2v1.63a5.32,5.32,0,0,0,.5,2.43,3.57,3.57,0,0,0,1.42,1.53,4.21,4.21,0,0,0,2.13.53,4.44,4.44,0,0,0,1.44-.23,3,3,0,0,0,1.85-1.81l2.63.47a4.77,4.77,0,0,1-1.13,2,5.54,5.54,0,0,1-2,1.34A7.54,7.54,0,0,1,87,42Z"/><path class="cls-5" d="M96.21,41.73V27.46h2.68v2.27H99a3.45,3.45,0,0,1,1.38-1.82,4,4,0,0,1,2.25-.66h.61l.57,0V30a5.7,5.7,0,0,0-.6-.11,6.07,6.07,0,0,0-.85-.06,3.75,3.75,0,0,0-1.76.41,3.18,3.18,0,0,0-1.21,1.15A3.08,3.08,0,0,0,99,33v8.71Z"/><path class="cls-5" d="M111.89,42a6.94,6.94,0,0,1-3.63-.91,6,6,0,0,1-2.34-2.55,8.55,8.55,0,0,1-.82-3.87,8.67,8.67,0,0,1,.82-3.87,6.17,6.17,0,0,1,5.78-3.55,7.19,7.19,0,0,1,2.34.4,5.8,5.8,0,0,1,2,1.26,6,6,0,0,1,1.42,2.21,9.46,9.46,0,0,1,.52,3.31v1H106.67V33.35h8.62a4.12,4.12,0,0,0-.44-2,3.38,3.38,0,0,0-3.13-1.83,3.64,3.64,0,0,0-2,.57,3.84,3.84,0,0,0-1.34,1.49,4.31,4.31,0,0,0-.47,2v1.63a5.32,5.32,0,0,0,.51,2.43,3.55,3.55,0,0,0,1.41,1.53,4.21,4.21,0,0,0,2.13.53,4.35,4.35,0,0,0,1.44-.23,3.08,3.08,0,0,0,1.13-.68,3.13,3.13,0,0,0,.72-1.13l2.63.47a4.77,4.77,0,0,1-1.13,2,5.58,5.58,0,0,1-2,1.34A7.63,7.63,0,0,1,111.89,42Z"/><path class="cls-5" d="M126.45,42a5.45,5.45,0,0,1-3.08-.89,5.89,5.89,0,0,1-2.11-2.53,9.22,9.22,0,0,1-.77-4,9.27,9.27,0,0,1,.77-3.95,5.86,5.86,0,0,1,2.14-2.52,5.57,5.57,0,0,1,3.07-.88,4.58,4.58,0,0,1,2.15.44,4,4,0,0,1,1.26,1,10,10,0,0,1,.7,1h.17V22.7h2.78v19h-2.72V39.51h-.23a7.62,7.62,0,0,1-.72,1,4.15,4.15,0,0,1-1.29,1A4.49,4.49,0,0,1,126.45,42Zm.62-2.37a3.27,3.27,0,0,0,2-.63,4,4,0,0,0,1.26-1.77,8.32,8.32,0,0,0,0-5.25,3.85,3.85,0,0,0-1.26-1.73,3.26,3.26,0,0,0-2-.63,3.3,3.3,0,0,0-2.09.65,4,4,0,0,0-1.26,1.78,7.2,7.2,0,0,0-.42,2.54,7.41,7.41,0,0,0,.42,2.57A4.15,4.15,0,0,0,125,39,3.26,3.26,0,0,0,127.07,39.64Z"/><path class="cls-5" d="M144.64,41.73v-19h2.78v7.07h.17a8.38,8.38,0,0,1,.69-1,4.18,4.18,0,0,1,1.27-1,4.47,4.47,0,0,1,2.13-.44,5.61,5.61,0,0,1,3.09.88,5.91,5.91,0,0,1,2.13,2.52,9.12,9.12,0,0,1,.78,3.95,9.37,9.37,0,0,1-.77,4,6,6,0,0,1-2.12,2.53,5.42,5.42,0,0,1-3.08.89,4.52,4.52,0,0,1-2.12-.43,4.15,4.15,0,0,1-1.29-1,6.67,6.67,0,0,1-.71-1h-.24v2.22Zm2.72-7.13a7.38,7.38,0,0,0,.44,2.64A4,4,0,0,0,149.06,39a3.6,3.6,0,0,0,4.11,0,4.15,4.15,0,0,0,1.27-1.81,7.89,7.89,0,0,0,0-5.11,4,4,0,0,0-1.27-1.78,3.34,3.34,0,0,0-2.09-.65,3.26,3.26,0,0,0-2,.63A3.7,3.7,0,0,0,147.79,32,7.18,7.18,0,0,0,147.36,34.6Z"/><path class="cls-5" d="M162,47.05a5.66,5.66,0,0,1-1.13-.1,3.15,3.15,0,0,1-.76-.21l.67-2.27a3.33,3.33,0,0,0,1.92.05,2.56,2.56,0,0,0,1.3-1.65l.35-.95-5.23-14.46h3l3.61,11.08h.15l3.62-11.08,3,0-5.9,16.15a6.55,6.55,0,0,1-1,1.87,4.31,4.31,0,0,1-1.51,1.15A4.93,4.93,0,0,1,162,47.05Z"/></g></g></g></svg>