<svg width="30" height="28" viewBox="0 0 30 28" fill="none" xmlns="http://www.w3.org/2000/svg">
<path fill-rule="evenodd" clip-rule="evenodd" d="M15 0C15.5523 0 16 0.447715 16 1L16 17.8063L23.1599 10.6464C23.5504 10.2559 24.1836 10.2559 24.5741 10.6464C24.9647 11.0369 24.9647 11.6701 24.5741 12.0606L15.8026 20.8322L15.0955 21.5393L14.3884 20.8322L5.61681 12.0606C5.22628 11.6701 5.22628 11.0369 5.61681 10.6464C6.00733 10.2559 6.6405 10.2559 7.03102 10.6464L14 17.6154L14 1C14 0.447715 14.4477 0 15 0ZM2 17C2 16.4477 1.55228 16 1 16C0.447715 16 0 16.4477 0 17V23C0 25.7614 2.23858 28 5 28H25C27.7614 28 30 25.7614 30 23V17C30 16.4477 29.5523 16 29 16C28.4477 16 28 16.4477 28 17V23C28 24.6569 26.6569 26 25 26H5C3.34315 26 2 24.6569 2 23V17Z" fill="white"/>
</svg>
