<svg width="187" height="36" viewBox="0 0 187 36" fill="none" xmlns="http://www.w3.org/2000/svg">
<path d="M170.364 13.535C170.364 13.8158 170.138 14.0405 169.857 14.0405H169.8C169.123 13.9843 168.447 13.9843 167.77 14.0405C166.529 14.209 165.345 14.4898 164.217 14.9952L164.048 15.0514C162.977 15.5007 161.849 15.7815 160.664 15.8377C160.157 15.8377 159.593 15.7815 159.085 15.6692C158.578 15.5569 158.183 15.2199 158.07 14.7144C157.394 11.3447 159.593 8.08729 162.977 7.4695C163.371 7.41334 163.766 7.35718 164.161 7.35718C167.601 7.35718 170.364 10.1091 170.364 13.535C170.364 13.4789 170.364 13.4789 170.364 13.535Z" fill="url(#paint0_radial)"/>
<path opacity="0.7" d="M158.465 16.6241C158.127 16.568 157.845 16.7364 157.788 17.0734C157.732 17.1857 157.788 17.3542 157.845 17.4666L163.935 28.5867C163.992 28.699 164.161 28.7552 164.273 28.699C164.33 28.699 164.33 28.6428 164.386 28.5867L171.097 16.2871C171.323 15.9502 171.153 15.5009 170.815 15.2762C170.759 15.2201 170.702 15.2201 170.59 15.2201C169.687 15.0516 168.729 14.9954 167.826 15.0516C166.698 15.2201 165.571 15.5009 164.499 15.9502L164.33 16.0063C163.146 16.5118 161.905 16.7926 160.608 16.8488C159.931 16.8488 159.198 16.7926 158.465 16.6241Z" fill="url(#paint1_linear)"/>
<path d="M164.161 16.2871C164.161 16.1748 164.217 16.0624 164.386 16.0063L164.555 15.9501C165.627 15.5008 166.755 15.22 167.883 15.0515C168.785 14.9392 169.744 14.9954 170.646 15.22C171.041 15.3323 171.266 15.7255 171.21 16.1186C171.21 16.1748 171.153 16.2309 171.153 16.3433L164.443 28.6428C164.386 28.699 164.33 28.7551 164.217 28.7551V16.2871H164.161Z" fill="url(#paint2_linear)"/>
<path d="M122.091 20.1061H116.001C115.832 20.1061 115.719 20.2185 115.775 20.3869C115.888 20.9486 116.114 21.3979 116.508 21.7348C116.96 22.128 117.523 22.3526 118.2 22.3526C119.102 22.3526 119.779 22.0157 120.174 21.2855C120.23 21.2294 120.287 21.1732 120.4 21.1732H121.809C121.979 21.1732 122.091 21.3417 122.035 21.5102C121.753 22.128 121.358 22.6896 120.738 23.0827C120.061 23.5882 119.215 23.8128 118.2 23.8128C117.354 23.8128 116.621 23.6444 116.001 23.2512C115.324 22.8581 114.817 22.3526 114.478 21.6787C114.083 21.0047 113.914 20.2185 113.914 19.376C113.914 18.4774 114.083 17.6912 114.478 17.0734C114.817 16.3994 115.324 15.894 116.001 15.5008C116.678 15.1639 117.411 14.9392 118.257 14.9392C119.046 14.9392 119.779 15.1077 120.456 15.4447C121.076 15.7816 121.584 16.2871 121.922 16.9049C122.26 17.5227 122.43 18.2528 122.43 19.0952C122.43 19.3199 122.43 19.5445 122.373 19.713C122.373 19.9938 122.26 20.1061 122.091 20.1061ZM120.287 18.6459C120.456 18.6459 120.569 18.5336 120.569 18.3651C120.512 17.8596 120.287 17.4103 119.892 17.0734C119.441 16.6802 118.877 16.4556 118.2 16.4556C117.58 16.4556 117.072 16.6241 116.621 17.0172C116.226 17.3542 116.001 17.7473 115.888 18.3089C115.832 18.4774 116.001 18.5898 116.114 18.5898H120.287V18.6459Z" fill="#1C0008"/>
<path d="M125.926 13.0857V23.4757C125.926 23.588 125.813 23.7565 125.644 23.7565H124.347C124.234 23.7565 124.065 23.6442 124.065 23.4757V13.3665C124.065 13.2542 124.122 13.1419 124.291 13.1419L125.588 12.861C125.757 12.8049 125.926 12.9172 125.926 13.0857Z" fill="#1C0008"/>
<path d="M128.238 17.0734C128.577 16.3994 129.084 15.894 129.704 15.5008C130.325 15.1077 131.002 14.9392 131.735 14.9392C132.411 14.9392 133.032 15.0515 133.483 15.3323C133.765 15.5008 134.047 15.6693 134.272 15.894C134.442 16.0625 134.667 15.894 134.667 15.7255C134.667 15.6132 134.723 15.5008 134.893 15.5008L136.19 15.22C136.359 15.1639 136.528 15.3323 136.528 15.4447V23.4759C136.528 23.5882 136.415 23.7567 136.246 23.7567H134.949C134.836 23.7567 134.667 23.6444 134.667 23.4759V23.0827C134.667 22.8581 134.385 22.7458 134.272 22.9142C134.047 23.1389 133.765 23.3074 133.483 23.4759C132.975 23.7567 132.355 23.869 131.678 23.869C130.945 23.869 130.268 23.7005 129.648 23.3074C129.028 22.9142 128.52 22.4088 128.182 21.7348C127.843 21.0609 127.618 20.2746 127.618 19.4322C127.674 18.5336 127.843 17.7473 128.238 17.0734ZM134.385 17.8596C134.16 17.4103 133.821 17.0734 133.426 16.8487C133.032 16.6241 132.581 16.5118 132.129 16.5118C131.678 16.5118 131.227 16.6241 130.832 16.8487C130.438 17.0734 130.099 17.4103 129.874 17.8035C129.648 18.2528 129.479 18.7582 129.479 19.3199C129.479 19.9376 129.592 20.4431 129.874 20.8924C130.099 21.3417 130.438 21.6787 130.832 21.9033C131.227 22.128 131.678 22.2403 132.129 22.2403C132.581 22.2403 133.032 22.128 133.426 21.9033C133.821 21.6787 134.16 21.3417 134.385 20.8924C134.611 20.4431 134.78 19.9376 134.78 19.3199C134.723 18.8144 134.611 18.3089 134.385 17.8596Z" fill="#1C0008"/>
<path d="M141.209 16.5679C141.096 16.5679 140.927 16.6803 140.927 16.8487V21.3417C140.927 21.6787 140.983 21.9033 141.152 22.0157C141.322 22.128 141.547 22.2403 141.942 22.2403H142.788C142.901 22.2403 143.07 22.3526 143.07 22.5211V23.4759C143.07 23.5882 142.957 23.7567 142.788 23.7567H141.66C140.87 23.7567 140.25 23.5882 139.799 23.1951C139.348 22.8019 139.179 22.2403 139.179 21.3979V16.9049C139.179 16.7926 139.066 16.6241 138.897 16.6241H138.389C138.276 16.6241 138.107 16.5118 138.107 16.3433V15.3885C138.107 15.2762 138.22 15.1077 138.389 15.1077H138.897C139.009 15.1077 139.179 14.9954 139.179 14.8269V13.5352C139.179 13.4228 139.235 13.3105 139.404 13.3105L140.701 13.0297C140.87 12.9735 141.04 13.142 141.04 13.2544V14.8269C141.04 14.9392 141.152 15.1077 141.322 15.1077H142.901C143.013 15.1077 143.183 15.22 143.183 15.3885V16.3433C143.183 16.4556 143.07 16.6241 142.901 16.6241H141.209V16.5679Z" fill="#1C0008"/>
<path d="M152.318 17.0734C151.923 16.3994 151.416 15.894 150.739 15.5008C150.062 15.1639 149.329 14.9392 148.483 14.9392C147.637 14.9392 146.904 15.1077 146.228 15.5008C145.551 15.8378 145.043 16.3994 144.649 17.0734C144.254 17.7473 144.085 18.5336 144.085 19.376C144.085 20.2746 144.254 21.0609 144.649 21.6787C145.043 22.3526 145.551 22.8581 146.171 23.2512C146.848 23.6444 147.581 23.8128 148.371 23.8128C149.217 23.8128 149.95 23.6444 150.626 23.2512C151.303 22.8581 151.867 22.3526 152.262 21.6787C152.656 21.0047 152.882 20.2185 152.882 19.376C152.938 18.5336 152.713 17.7473 152.318 17.0734ZM151.021 20.9486C150.739 21.3979 150.401 21.7348 149.95 21.9595C149.498 22.1841 148.991 22.2965 148.483 22.2965C147.976 22.2965 147.468 22.1841 147.074 21.9595C146.622 21.7348 146.284 21.3979 146.058 20.9486C145.833 20.4993 145.664 19.9938 145.664 19.4322C145.664 18.8706 145.777 18.3651 146.058 17.9158C146.284 17.4665 146.679 17.1295 147.074 16.9049C147.525 16.6802 147.976 16.5679 148.54 16.5679C149.104 16.5679 149.555 16.6802 150.006 16.9049C150.457 17.1295 150.796 17.4665 151.021 17.9158C151.247 18.3651 151.416 18.8706 151.416 19.4322C151.416 19.9938 151.247 20.4993 151.021 20.9486Z" fill="#1C0008"/>
<path d="M108.726 19.2074H110.7C110.869 19.2074 110.982 19.3759 110.925 19.5444C110.756 20.3307 110.305 20.9485 109.798 21.4539C109.177 22.0156 108.388 22.2402 107.429 22.2402C106.696 22.2402 106.076 22.0717 105.512 21.7347C104.948 21.3978 104.497 20.9485 104.158 20.3307C103.82 19.7129 103.707 19.039 103.707 18.2527C103.707 17.4664 103.876 16.7925 104.158 16.1747C104.497 15.5569 104.948 15.1076 105.512 14.7706C106.076 14.4337 106.696 14.2652 107.429 14.2652C108.106 14.2652 108.783 14.3775 109.29 14.6583C109.685 14.883 110.023 15.1638 110.305 15.5569C110.418 15.6692 110.531 15.7254 110.644 15.6131L111.602 14.8268C111.715 14.7145 111.715 14.546 111.659 14.4898C111.32 14.0967 110.982 13.8159 110.531 13.5351C109.628 12.9734 108.613 12.6926 107.429 12.6926C106.414 12.6926 105.455 12.9173 104.609 13.4227C103.764 13.872 103.087 14.546 102.579 15.3884C102.072 16.2308 101.846 17.1856 101.846 18.2527C101.846 19.3198 102.072 20.2745 102.579 21.117C103.087 21.9594 103.764 22.6333 104.609 23.0826C105.455 23.5319 106.414 23.8128 107.429 23.8128C108.388 23.8128 109.234 23.5881 110.023 23.195C110.813 22.7457 111.433 22.184 111.941 21.5101C112.448 20.78 112.73 20.0499 112.843 19.2074C112.843 19.2074 112.843 19.2074 112.843 19.1513V18.028C112.843 17.9157 112.73 17.7472 112.561 17.7472H108.67C108.557 17.7472 108.388 17.8596 108.388 18.028V18.9266C108.501 19.0951 108.613 19.2074 108.726 19.2074Z" fill="#1C0008"/>
<path d="M15.79 23.4196V12.7488H19.6248C20.4707 12.7488 21.1474 12.9173 21.7113 13.1981C22.2753 13.4789 22.67 13.9282 22.952 14.4336C23.2339 14.9391 23.3467 15.5569 23.3467 16.1747C23.3467 16.8486 23.2339 17.4102 22.952 17.9719C22.67 18.4773 22.2753 18.9266 21.7113 19.2074C21.1474 19.4882 20.4707 19.6567 19.6248 19.6567H16.9743V18.3088H19.4556C19.9631 18.3088 20.4143 18.1965 20.7526 18.028C21.091 17.8595 21.3166 17.5787 21.4858 17.2979C21.6549 16.9609 21.7113 16.624 21.7113 16.2308C21.7113 15.8377 21.6549 15.4446 21.4858 15.1638C21.3166 14.8268 21.091 14.6021 20.7526 14.4336C20.4143 14.2652 19.9631 14.1528 19.4556 14.1528H17.4254V23.4758H15.79V23.4196Z" fill="#1C0008"/>
<path d="M28.4222 23.5881C27.689 23.5881 27.0123 23.4196 26.4484 23.0827C25.8845 22.7457 25.4333 22.2402 25.1513 21.6225C24.813 21.0047 24.7002 20.2746 24.7002 19.4321C24.7002 18.5897 24.8694 17.8596 25.1513 17.2418C25.4897 16.624 25.8845 16.1186 26.4484 15.7816C27.0123 15.4446 27.689 15.2761 28.4222 15.2761C29.1553 15.2761 29.832 15.4446 30.3959 15.7816C30.9598 16.1186 31.411 16.624 31.693 17.2418C32.0313 17.8596 32.1441 18.5897 32.1441 19.4321C32.1441 20.2746 31.9749 21.0047 31.693 21.6225C31.3546 22.2402 30.9598 22.7457 30.3959 23.0827C29.832 23.4196 29.1553 23.5881 28.4222 23.5881ZM28.4222 22.2964C28.9297 22.2964 29.3244 22.1841 29.6628 21.9033C30.0012 21.6225 30.2267 21.2855 30.3959 20.8923C30.5651 20.443 30.6215 19.9938 30.6215 19.4883C30.6215 18.9828 30.5651 18.5335 30.3959 18.0842C30.2267 17.6349 30.0012 17.298 29.6628 17.0733C29.3244 16.7925 28.9297 16.6802 28.4222 16.6802C27.9146 16.6802 27.5199 16.7925 27.1815 17.0733C26.8431 17.3541 26.6176 17.6911 26.4484 18.0842C26.2792 18.5335 26.2228 18.9828 26.2228 19.4883C26.2228 19.9938 26.2792 20.4992 26.4484 20.8923C26.6176 21.3416 26.8431 21.6786 27.1815 21.9033C27.5199 22.1841 27.9146 22.2964 28.4222 22.2964Z" fill="#1C0008"/>
<path d="M35.4149 23.4196L33.0464 15.3884H34.6818L36.2608 21.2855H36.3172L37.8962 15.3884H39.5316L41.1106 21.2293H41.167L42.746 15.3884H44.3814L42.0129 23.4196H40.4339L38.7985 17.6349H38.6857L37.0503 23.4196H35.4149Z" fill="#1C0008"/>
<path d="M49.062 23.5881C48.2725 23.5881 47.5958 23.4196 47.0319 23.0827C46.4679 22.7457 46.0168 22.2402 45.7348 21.6225C45.4529 21.0047 45.2837 20.2746 45.2837 19.4321C45.2837 18.5897 45.4529 17.8596 45.7348 17.2418C46.0168 16.624 46.4679 16.1186 47.0319 15.7816C47.5958 15.4446 48.2161 15.2761 49.0056 15.2761C49.4568 15.2761 49.9079 15.3323 50.3027 15.5008C50.7538 15.6693 51.0922 15.8939 51.4306 16.2309C51.7689 16.5679 52.0509 16.961 52.2201 17.4665C52.3892 17.9719 52.502 18.5897 52.502 19.3198V19.8814H46.1296V18.702H50.9794C50.9794 18.3089 50.923 17.9157 50.7538 17.6349C50.5847 17.298 50.3591 17.0733 50.0771 16.9048C49.7952 16.7363 49.4004 16.624 49.0056 16.624C48.5545 16.624 48.1597 16.7363 47.8778 16.961C47.5394 17.1856 47.3138 17.4665 47.1447 17.8034C46.9755 18.1404 46.8627 18.5335 46.8627 18.9267V19.8253C46.8627 20.3869 46.9755 20.8362 47.1447 21.1732C47.3138 21.5663 47.5958 21.8471 47.9342 22.0156C48.2725 22.1841 48.6673 22.2964 49.1184 22.2964C49.4004 22.2964 49.6824 22.2402 49.9079 22.1841C50.1335 22.0718 50.3591 21.9594 50.5283 21.7909C50.6974 21.6225 50.8666 21.3978 50.923 21.1732L52.3892 21.454C52.2765 21.9033 52.0509 22.2964 51.7689 22.5772C51.4869 22.9142 51.0922 23.1388 50.6411 23.3073C50.1899 23.532 49.626 23.5881 49.062 23.5881Z" fill="#1C0008"/>
<path d="M54.2502 23.4196V15.4446H55.7729V16.7363H55.8293C55.9984 16.287 56.224 15.9501 56.6188 15.7254C57.0135 15.5008 57.4083 15.3323 57.8594 15.3323C57.9722 15.3323 58.085 15.3323 58.1978 15.3323C58.3106 15.3323 58.4233 15.3323 58.5361 15.3323V16.8487C58.4797 16.8487 58.3669 16.7925 58.1978 16.7925C58.0286 16.7925 57.8594 16.7363 57.6902 16.7363C57.2955 16.7363 57.0135 16.7925 56.6752 16.961C56.3932 17.1295 56.1676 17.3541 55.9984 17.5788C55.8293 17.8596 55.7729 18.1404 55.7729 18.5335V23.4196H54.2502Z" fill="#1C0008"/>
<path d="M63.104 23.5881C62.3145 23.5881 61.6378 23.4196 61.0739 23.0827C60.5099 22.7457 60.0588 22.2402 59.7768 21.6225C59.4949 21.0047 59.3257 20.2746 59.3257 19.4321C59.3257 18.5897 59.4949 17.8596 59.7768 17.2418C60.0588 16.624 60.5099 16.1186 61.0739 15.7816C61.6378 15.4446 62.2581 15.2761 63.0476 15.2761C63.4988 15.2761 63.9499 15.3323 64.3447 15.5008C64.7958 15.6693 65.1342 15.8939 65.4725 16.2309C65.8109 16.5679 66.0929 16.961 66.2621 17.4665C66.4312 17.9719 66.544 18.5897 66.544 19.3198V19.8814H60.1716V18.702H65.0214C65.0214 18.3089 64.965 17.9157 64.7958 17.6349C64.6266 17.298 64.4011 17.0733 64.1191 16.9048C63.8371 16.7363 63.4424 16.624 63.0476 16.624C62.5965 16.624 62.2017 16.7363 61.9198 16.961C61.5814 17.1856 61.3558 17.4665 61.1867 17.8034C61.0175 18.1404 60.9047 18.5335 60.9047 18.9267V19.8253C60.9047 20.3869 61.0175 20.8362 61.1867 21.1732C61.3558 21.5663 61.6378 21.8471 61.9762 22.0156C62.3145 22.1841 62.7093 22.2964 63.1604 22.2964C63.4424 22.2964 63.7244 22.2402 63.9499 22.1841C64.1755 22.0718 64.4011 21.9594 64.5703 21.7909C64.7394 21.6225 64.9086 21.3978 64.965 21.1732L66.4312 21.454C66.3184 21.9033 66.0929 22.2964 65.8109 22.5772C65.5289 22.9142 65.1342 23.1388 64.683 23.3073C64.2319 23.532 63.668 23.5881 63.104 23.5881Z" fill="#1C0008"/>
<path d="M71.3375 23.5881C70.6607 23.5881 70.0968 23.4196 69.5893 23.0827C69.0817 22.7457 68.687 22.2964 68.405 21.6786C68.123 21.0608 67.9539 20.3307 67.9539 19.4321C67.9539 18.5897 68.123 17.8034 68.405 17.1856C68.687 16.5678 69.0817 16.1185 69.5893 15.7816C70.0968 15.4446 70.6607 15.2761 71.3375 15.2761C71.845 15.2761 72.2397 15.3323 72.5217 15.5007C72.8037 15.6692 73.0856 15.8377 73.2548 16.0624C73.424 16.287 73.5368 16.4555 73.6496 16.624H73.7624V12.6365H75.3414V23.3073H73.8188V22.0717H73.706C73.5932 22.2402 73.4804 22.4649 73.3112 22.6334C73.142 22.8018 72.9165 23.0265 72.5781 23.195C72.1833 23.532 71.7886 23.5881 71.3375 23.5881ZM71.6758 22.2402C72.127 22.2402 72.5217 22.1279 72.8037 21.9032C73.142 21.6786 73.3676 21.3416 73.5368 20.8923C73.706 20.443 73.7624 19.9937 73.7624 19.4321C73.7624 18.8705 73.706 18.365 73.5368 17.9719C73.3676 17.5788 73.142 17.2418 72.8037 17.0171C72.4653 16.7925 72.127 16.6802 71.6758 16.6802C71.2247 16.6802 70.8299 16.7925 70.4916 17.0171C70.1532 17.2418 69.9276 17.5788 69.7584 18.028C69.5893 18.4212 69.5329 18.9266 69.5329 19.4321C69.5329 19.9937 69.5893 20.443 69.7584 20.8923C69.9276 21.3416 70.1532 21.6786 70.4916 21.9032C70.8299 22.1279 71.1683 22.2402 71.6758 22.2402Z" fill="#1C0008"/>
<path d="M81.5444 23.4196V12.7488H83.1234V16.7363H83.2362C83.349 16.5678 83.4618 16.3993 83.631 16.1747C83.8002 15.95 84.0257 15.7815 84.3641 15.6131C84.6461 15.4446 85.0972 15.3884 85.5483 15.3884C86.2251 15.3884 86.789 15.5569 87.2965 15.8939C87.8041 16.2308 88.1988 16.6801 88.4808 17.2979C88.7628 17.9157 88.9319 18.6458 88.9319 19.5444C88.9319 20.3868 88.7628 21.1731 88.4808 21.7909C88.1988 22.4087 87.8041 22.858 87.2965 23.195C86.789 23.5319 86.2251 23.7004 85.5483 23.7004C85.0408 23.7004 84.6461 23.6443 84.3641 23.4758C84.0821 23.3073 83.8002 23.1388 83.631 22.9141C83.4618 22.6895 83.349 22.521 83.2362 22.3525H83.1234V23.5881H81.5444V23.4196ZM83.1234 19.4321C83.1234 19.9937 83.1798 20.4992 83.349 20.8923C83.5182 21.2854 83.7438 21.6224 84.0821 21.9032C84.4205 22.1279 84.7588 22.2402 85.21 22.2402C85.6611 22.2402 86.0559 22.1279 86.3942 21.8471C86.7326 21.5663 86.9582 21.2854 87.1274 20.8361C87.2965 20.3868 87.3529 19.9375 87.3529 19.3759C87.3529 18.8705 87.2965 18.365 87.1274 17.9719C86.9582 17.5787 86.7326 17.2418 86.3942 16.9609C86.0559 16.7363 85.6611 16.624 85.21 16.624C84.7588 16.624 84.3641 16.7363 84.0821 16.9609C83.7438 17.1856 83.5182 17.5226 83.349 17.9157C83.1798 18.365 83.1234 18.8705 83.1234 19.4321Z" fill="#1C0008"/>
<path d="M91.3568 26.3962C91.1313 26.3962 90.9057 26.3962 90.7365 26.3401C90.5673 26.2839 90.3982 26.2839 90.2854 26.2277L90.6801 24.936C91.1313 25.0483 91.4696 25.0483 91.7516 24.9922C92.0336 24.936 92.3155 24.599 92.4847 24.0936L92.6539 23.5881L89.7214 15.4446H91.4132L93.4434 21.6786H93.4998L95.5299 15.4446H97.2217L93.8945 24.5429C93.7254 24.936 93.5562 25.3291 93.3306 25.6099C93.105 25.8908 92.8231 26.1154 92.4847 26.2839C92.2027 26.3401 91.808 26.3962 91.3568 26.3962Z" fill="#1C0008"/>
<defs>
<radialGradient id="paint0_radial" cx="0" cy="0" r="1" gradientUnits="userSpaceOnUse" gradientTransform="translate(168.075 8.20156) rotate(167.35) scale(23.6365 28.215)">
<stop/>
<stop offset="0.12" stop-color="#1C0008"/>
<stop offset="1" stop-opacity="0"/>
</radialGradient>
<linearGradient id="paint1_linear" x1="164.479" y1="15.3201" x2="164.479" y2="28.6719" gradientUnits="userSpaceOnUse">
<stop stop-color="#1B0008"/>
<stop offset="1" stop-color="#1B0008" stop-opacity="0.5"/>
</linearGradient>
<linearGradient id="paint2_linear" x1="167.663" y1="14.9956" x2="167.663" y2="34.3763" gradientUnits="userSpaceOnUse">
<stop stop-color="#150006"/>
<stop offset="1" stop-color="#1B0008" stop-opacity="0"/>
</linearGradient>
</defs>
</svg>
