<svg width="187" height="37" viewBox="0 0 187 37" fill="none" xmlns="http://www.w3.org/2000/svg">
<path d="M170.337 13.9385C170.335 14.006 170.32 14.0724 170.293 14.1339C170.265 14.1954 170.227 14.2508 170.178 14.297C170.13 14.3431 170.074 14.379 170.012 14.4027C169.95 14.4264 169.884 14.4374 169.819 14.4351H169.768C169.089 14.36 168.405 14.36 167.727 14.4351C166.501 14.5913 165.3 14.9136 164.157 15.3936L163.965 15.4629C162.892 15.932 161.747 16.2056 160.582 16.2713C160.05 16.2869 159.519 16.2384 158.998 16.1269C158.754 16.0797 158.53 15.9595 158.353 15.7817C158.177 15.6039 158.056 15.3764 158.005 15.128C157.841 14.3045 157.839 13.4559 157.998 12.6314C158.156 11.8068 158.473 11.0227 158.93 10.3246C159.387 9.62638 159.974 9.02797 160.659 8.56402C161.343 8.10006 162.111 7.77983 162.917 7.62179C163.309 7.544 163.707 7.50337 164.106 7.50049C165.752 7.50049 167.329 8.16964 168.492 9.36077C169.656 10.5519 170.309 12.1674 170.309 13.8519V13.9154L170.337 13.9385Z" fill="url(#paint0_radial)"/>
<path opacity="0.7" d="M158.456 17.0739C158.382 17.0535 158.304 17.0488 158.228 17.0603C158.151 17.0719 158.078 17.0994 158.013 17.141C157.947 17.1827 157.891 17.2377 157.847 17.3027C157.803 17.3676 157.772 17.441 157.757 17.5185C157.724 17.6476 157.736 17.7843 157.791 17.9054L163.898 29.3495C163.915 29.3799 163.937 29.4066 163.964 29.428C163.991 29.4494 164.022 29.4651 164.055 29.4742C164.088 29.4834 164.123 29.4857 164.157 29.4811C164.191 29.4766 164.223 29.4652 164.253 29.4477C164.293 29.4242 164.326 29.3903 164.349 29.3495L171.115 16.7217C171.165 16.6324 171.197 16.5338 171.208 16.4318C171.219 16.3297 171.21 16.2263 171.181 16.128C171.152 16.0297 171.104 15.9384 171.039 15.8598C170.975 15.7812 170.895 15.7169 170.805 15.6708C170.743 15.6321 170.674 15.6048 170.602 15.59C169.689 15.394 168.751 15.3414 167.822 15.4341C166.675 15.5961 165.553 15.9085 164.484 16.3637L164.321 16.4273C163.145 16.9367 161.891 17.2335 160.616 17.3049C159.889 17.3227 159.164 17.2451 158.456 17.0739Z" fill="url(#paint1_linear)"/>
<path d="M164.123 16.7388C164.123 16.6742 164.143 16.6112 164.179 16.5585C164.215 16.5057 164.267 16.4658 164.326 16.4443L164.49 16.3808C165.559 15.9256 166.681 15.6131 167.828 15.4512C168.757 15.3585 169.694 15.411 170.608 15.6071C170.703 15.6276 170.793 15.6672 170.873 15.7238C170.953 15.7804 171.022 15.8527 171.074 15.9365C171.127 16.0203 171.162 16.114 171.179 16.2121C171.196 16.3102 171.193 16.4107 171.172 16.5078C171.16 16.5837 171.133 16.6563 171.093 16.7214L164.326 29.3666C164.305 29.4086 164.272 29.4437 164.233 29.4681C164.193 29.4926 164.147 29.5053 164.101 29.5051L164.123 16.7388Z" fill="url(#paint2_linear)"/>
<path d="M122.103 20.6482H116.03C115.993 20.6486 115.957 20.657 115.924 20.6729C115.891 20.6887 115.862 20.7117 115.839 20.7402C115.815 20.7687 115.798 20.802 115.788 20.8379C115.778 20.8739 115.776 20.9116 115.782 20.9484C115.862 21.4853 116.119 21.9782 116.509 22.3458C116.972 22.7742 117.577 23.0038 118.201 22.9867C118.595 23.0143 118.989 22.9256 119.336 22.7312C119.683 22.5368 119.968 22.2448 120.157 21.8896C120.181 21.8491 120.214 21.8153 120.253 21.7911C120.292 21.7669 120.337 21.7531 120.383 21.751H121.787C121.829 21.7517 121.87 21.7629 121.907 21.7835C121.944 21.8041 121.975 21.8335 121.999 21.8692C122.022 21.905 122.036 21.9461 122.041 21.9889C122.045 22.0316 122.039 22.0749 122.024 22.1148C121.745 22.7669 121.301 23.331 120.738 23.7488C119.997 24.2823 119.106 24.5539 118.201 24.5225C117.426 24.5308 116.662 24.3318 115.985 23.9451C115.338 23.5683 114.808 23.0119 114.457 22.34C114.071 21.606 113.877 20.7827 113.893 19.9496C113.882 19.1151 114.076 18.2913 114.457 17.5533C114.8 16.8824 115.327 16.3286 115.973 15.9597C116.664 15.5702 117.441 15.3712 118.229 15.3823C118.989 15.3783 119.738 15.5773 120.4 15.9597C121.028 16.3115 121.545 16.8406 121.889 17.484C122.25 18.1824 122.432 18.9631 122.419 19.7532C122.419 19.975 122.408 20.1967 122.385 20.4172C122.381 20.4514 122.371 20.4846 122.355 20.5148C122.339 20.5449 122.317 20.5715 122.291 20.593C122.265 20.6145 122.235 20.6305 122.202 20.6399C122.17 20.6494 122.136 20.6522 122.103 20.6482ZM120.253 19.1758C120.289 19.176 120.325 19.1685 120.357 19.1536C120.39 19.1388 120.42 19.1171 120.443 19.0898C120.467 19.0625 120.486 19.0303 120.496 18.9954C120.507 18.9605 120.511 18.9235 120.507 18.8871C120.456 18.3708 120.211 17.8949 119.825 17.5591C119.353 17.1495 118.751 16.9317 118.133 16.947C117.554 16.9281 116.99 17.1344 116.554 17.5244C116.179 17.872 115.922 18.3333 115.821 18.8409C115.814 18.8791 115.814 18.9186 115.824 18.9564C115.833 18.9942 115.851 19.0293 115.875 19.0593C115.899 19.0892 115.93 19.1132 115.965 19.1293C115.999 19.1455 116.037 19.1535 116.075 19.1527L120.253 19.1758Z" fill="#F2F4F8"/>
<path d="M125.926 13.4303V24.1181C125.924 24.1875 125.896 24.2536 125.848 24.3022C125.8 24.3507 125.734 24.3779 125.667 24.3779H124.398C124.33 24.3779 124.265 24.3507 124.216 24.3022C124.168 24.2536 124.14 24.1875 124.138 24.1181V13.7248C124.14 13.6653 124.16 13.6079 124.197 13.5618C124.234 13.5158 124.285 13.4836 124.341 13.4707L125.61 13.1763C125.648 13.1677 125.687 13.1678 125.724 13.1765C125.762 13.1852 125.797 13.2023 125.827 13.2266C125.857 13.2509 125.882 13.2818 125.899 13.3171C125.916 13.3523 125.925 13.391 125.926 13.4303Z" fill="#F2F4F8"/>
<path d="M128.215 17.5762C128.553 16.9163 129.062 16.3647 129.687 15.9826C130.306 15.5988 131.016 15.3988 131.74 15.4052C132.355 15.3917 132.965 15.5324 133.516 15.8151C133.801 15.9732 134.067 16.1671 134.305 16.3925C134.342 16.4261 134.387 16.448 134.436 16.4557C134.485 16.4633 134.534 16.4563 134.579 16.4355C134.624 16.4147 134.662 16.381 134.688 16.3385C134.715 16.296 134.729 16.2466 134.728 16.1962C134.728 16.1372 134.748 16.0799 134.783 16.0338C134.819 15.9876 134.869 15.9552 134.926 15.9421L136.217 15.6476C136.254 15.639 136.293 15.639 136.33 15.6477C136.367 15.6564 136.402 15.6737 136.432 15.6981C136.462 15.7225 136.486 15.7535 136.502 15.7887C136.519 15.824 136.527 15.8626 136.527 15.9017V24.1355C136.527 24.1696 136.52 24.2034 136.508 24.2349C136.495 24.2664 136.476 24.2951 136.453 24.3192C136.429 24.3433 136.401 24.3625 136.37 24.3756C136.34 24.3886 136.307 24.3953 136.273 24.3953H134.982C134.949 24.3953 134.916 24.3886 134.885 24.3756C134.854 24.3625 134.826 24.3433 134.803 24.3192C134.779 24.2951 134.76 24.2664 134.748 24.2349C134.735 24.2034 134.728 24.1696 134.728 24.1355V23.7544C134.728 23.7045 134.713 23.6558 134.686 23.6142C134.659 23.5726 134.621 23.5398 134.577 23.5197C134.532 23.4996 134.483 23.493 134.435 23.5009C134.387 23.5087 134.342 23.5306 134.305 23.5639C134.059 23.7904 133.787 23.9844 133.493 24.1413C132.941 24.4253 132.329 24.568 131.711 24.557C130.993 24.5647 130.288 24.3646 129.676 23.9796C129.054 23.5793 128.55 23.0148 128.215 22.3456C127.838 21.6126 127.644 20.7951 127.651 19.9666C127.636 19.1334 127.83 18.3103 128.215 17.5762ZM134.345 18.373C134.121 17.9483 133.787 17.5948 133.381 17.351C132.993 17.1175 132.55 16.9958 132.101 16.9988C131.652 16.9972 131.211 17.1146 130.821 17.3395C130.413 17.5769 130.079 17.9271 129.856 18.3499C129.603 18.8342 129.477 19.3772 129.49 19.9262C129.479 20.4843 129.605 21.0362 129.856 21.5314C130.078 21.9654 130.414 22.3273 130.826 22.5765C131.211 22.8147 131.651 22.9405 132.101 22.9402C132.55 22.9405 132.992 22.819 133.381 22.588C133.788 22.34 134.121 21.9826 134.345 21.5545C134.596 21.0634 134.722 20.5153 134.711 19.9609C134.724 19.4082 134.598 18.8614 134.345 18.373Z" fill="#F2F4F8"/>
<path d="M141.207 17.045C141.14 17.045 141.075 17.0724 141.028 17.1211C140.98 17.1698 140.953 17.2358 140.953 17.3048V21.924C140.941 22.0519 140.955 22.1811 140.993 22.3033C141.032 22.4256 141.095 22.5383 141.179 22.6343C141.401 22.8018 141.676 22.8798 141.951 22.8536H142.792C142.859 22.8536 142.923 22.881 142.971 22.9297C143.019 22.9784 143.045 23.0446 143.045 23.1135V24.1124C143.045 24.1813 143.019 24.2474 142.971 24.2961C142.923 24.3448 142.859 24.3722 142.792 24.3722H141.664C140.999 24.4195 140.34 24.2139 139.814 23.7948C139.583 23.5481 139.406 23.2534 139.296 22.9306C139.187 22.6077 139.146 22.2644 139.177 21.924V17.3048C139.176 17.2353 139.148 17.1693 139.099 17.1207C139.051 17.0722 138.986 17.0449 138.918 17.045H138.416C138.348 17.045 138.283 17.0178 138.234 16.9692C138.186 16.9206 138.158 16.8546 138.156 16.7852V15.8151C138.158 15.7456 138.186 15.6795 138.234 15.631C138.283 15.5824 138.348 15.5553 138.416 15.5553H138.918C138.986 15.5553 139.051 15.5281 139.099 15.4795C139.148 15.4309 139.176 15.3648 139.177 15.2954V13.9847C139.176 13.9254 139.195 13.8676 139.231 13.8212C139.267 13.7748 139.318 13.7428 139.374 13.7307L140.666 13.4362C140.703 13.4275 140.742 13.4275 140.779 13.4363C140.816 13.445 140.851 13.4622 140.881 13.4867C140.91 13.5111 140.935 13.542 140.951 13.5773C140.968 13.6125 140.976 13.6511 140.976 13.6902V15.2954C140.976 15.3643 141.003 15.4304 141.05 15.4792C141.098 15.5279 141.162 15.5553 141.23 15.5553H142.814C142.881 15.5553 142.946 15.5826 142.994 15.6313C143.041 15.6801 143.068 15.7462 143.068 15.8151V16.7852C143.068 16.8541 143.041 16.9201 142.994 16.9688C142.946 17.0176 142.881 17.045 142.814 17.045H141.207Z" fill="#F2F4F8"/>
<path d="M152.321 17.5763C151.953 16.8998 151.406 16.3434 150.743 15.9711C150.051 15.586 149.275 15.3873 148.487 15.3937C147.7 15.3873 146.923 15.586 146.231 15.9711C145.568 16.3434 145.021 16.8998 144.653 17.5763C144.264 18.3067 144.069 19.1292 144.089 19.961C144.07 20.7945 144.265 21.6184 144.653 22.3514C145.009 23.0256 145.544 23.5823 146.198 23.9566C146.871 24.341 147.631 24.54 148.402 24.534C149.19 24.5376 149.965 24.3391 150.658 23.9566C151.333 23.5837 151.893 23.026 152.276 22.3457C152.669 21.6168 152.864 20.7932 152.84 19.961C152.874 19.1333 152.695 18.3111 152.321 17.5763ZM150.979 21.5199C150.732 21.964 150.366 22.3265 149.925 22.565C149.473 22.8159 148.967 22.9451 148.453 22.9403C147.95 22.9465 147.454 22.817 147.015 22.565C146.59 22.3234 146.24 21.963 146.006 21.5257C145.755 21.0448 145.629 20.5061 145.639 19.961C145.628 19.4181 145.759 18.8819 146.017 18.4077C146.255 17.9665 146.611 17.604 147.043 17.3627C147.493 17.1177 147.995 16.9925 148.504 16.9989C149.013 16.9925 149.515 17.1177 149.964 17.3627C150.397 17.604 150.753 17.9665 150.991 18.4077C151.249 18.8819 151.38 19.4181 151.368 19.961C151.379 20.5071 151.244 21.0458 150.979 21.5199Z" fill="#F2F4F8"/>
<path d="M108.722 19.7647H110.701C110.739 19.7648 110.777 19.7736 110.812 19.7904C110.846 19.8072 110.877 19.8317 110.901 19.8621C110.925 19.8924 110.943 19.928 110.952 19.966C110.961 20.0041 110.962 20.0438 110.955 20.0823C110.784 20.836 110.39 21.5175 109.827 22.0339C109.166 22.6077 108.319 22.9047 107.453 22.8653C106.779 22.8794 106.113 22.7079 105.525 22.3688C104.958 22.0349 104.496 21.5421 104.194 20.9484C103.867 20.2889 103.702 19.5573 103.715 18.8177C103.701 18.0798 103.865 17.3499 104.194 16.6929C104.495 16.0998 104.957 15.6084 105.525 15.2782C106.112 14.9371 106.778 14.7636 107.453 14.7759C108.093 14.7633 108.725 14.9099 109.297 15.2032C109.69 15.4257 110.03 15.7331 110.295 16.104C110.315 16.1329 110.341 16.1574 110.37 16.1758C110.4 16.1943 110.433 16.2063 110.467 16.2112C110.502 16.216 110.537 16.2136 110.57 16.2041C110.603 16.1946 110.635 16.1782 110.662 16.1559L111.626 15.3533C111.653 15.3315 111.675 15.3043 111.692 15.2733C111.708 15.2423 111.718 15.2083 111.721 15.1731C111.725 15.138 111.721 15.1026 111.71 15.069C111.7 15.0355 111.682 15.0046 111.66 14.978C111.341 14.5846 110.96 14.2488 110.532 13.9849C109.602 13.3931 108.525 13.0885 107.431 13.1073C106.444 13.095 105.472 13.3478 104.611 13.8405C103.769 14.3174 103.069 15.02 102.587 15.873C102.083 16.7676 101.826 17.7853 101.843 18.8177C101.827 19.8482 102.084 20.8639 102.587 21.7568C103.067 22.6095 103.765 23.3122 104.606 23.7892C105.466 24.284 106.438 24.5369 107.425 24.5225C108.332 24.5363 109.227 24.3116 110.024 23.87C110.784 23.4567 111.436 22.8626 111.925 22.1378C112.403 21.4303 112.712 20.6173 112.827 19.7647V18.5579C112.827 18.4885 112.8 18.4218 112.753 18.3721C112.706 18.3225 112.641 18.2938 112.573 18.2923H108.699C108.631 18.2938 108.567 18.3225 108.52 18.3721C108.472 18.4218 108.446 18.4885 108.446 18.5579V19.4991C108.445 19.5357 108.451 19.5721 108.465 19.6059C108.479 19.6398 108.499 19.6702 108.526 19.6953C108.552 19.7204 108.583 19.7395 108.616 19.7515C108.65 19.7634 108.686 19.7679 108.722 19.7647Z" fill="#F2F4F8"/>
<g opacity="0.75">
<path opacity="0.75" d="M15.8113 24.0952V13.1245H19.6344C20.3536 13.0973 21.0679 13.2583 21.7095 13.5923C22.2347 13.8795 22.6631 14.3222 22.9388 14.8625C23.2187 15.4254 23.36 16.0498 23.3504 16.6814C23.358 17.3146 23.2168 17.9404 22.9388 18.506C22.6573 19.0474 22.2257 19.4914 21.6982 19.782C21.0584 20.1155 20.3462 20.2765 19.6288 20.2497H16.9954V18.8408H19.4822C19.9265 18.8589 20.3683 18.7637 20.7678 18.5637C21.0821 18.3903 21.3347 18.1194 21.4896 17.79C21.6478 17.4432 21.7268 17.0641 21.7207 16.6814C21.7275 16.3004 21.6484 15.923 21.4896 15.5785C21.3347 15.2515 21.0791 14.9858 20.7621 14.8221C20.3574 14.6198 19.9096 14.5245 19.4596 14.545H17.4296V24.1125L15.8113 24.0952Z" fill="#F2F4F8"/>
<path opacity="0.75" d="M28.4028 24.2627C27.7094 24.2774 27.0259 24.0934 26.4292 23.7315C25.8632 23.373 25.4092 22.8561 25.121 22.2418C24.7971 21.5465 24.6368 20.7832 24.653 20.013C24.6369 19.2373 24.7971 18.4684 25.121 17.7669C25.4092 17.1526 25.8632 16.6357 26.4292 16.2773C27.0259 15.9153 27.7094 15.7313 28.4028 15.746C29.098 15.7306 29.7836 15.9146 30.382 16.2773C30.9466 16.6374 31.4002 17.1539 31.6902 17.7669C32.0141 18.4684 32.1743 19.2373 32.1582 20.013C32.1744 20.7832 32.0141 21.5465 31.6902 22.2418C31.4083 22.8611 30.9605 23.3857 30.3989 23.7546C29.7933 24.1123 29.1015 24.2884 28.4028 24.2627ZM28.4028 22.9174C28.8418 22.9346 29.2728 22.7936 29.6208 22.5189C29.9499 22.2409 30.1977 21.8753 30.3369 21.4623C30.4948 20.9945 30.573 20.5023 30.5681 20.0073C30.5725 19.5142 30.4943 19.024 30.3369 18.558C30.1977 18.1417 29.9501 17.7724 29.6208 17.4898C29.2736 17.2131 28.8425 17.07 28.4028 17.0856C27.9615 17.0711 27.529 17.214 27.1791 17.4898C26.8457 17.7709 26.5941 18.1404 26.4518 18.558C26.2915 19.0232 26.2133 19.514 26.2206 20.0073C26.2148 20.4967 26.2931 20.9833 26.4518 21.445C26.5909 21.858 26.8387 22.2236 27.1679 22.5016C27.5207 22.7854 27.96 22.9326 28.4084 22.9174H28.4028Z" fill="#F2F4F8"/>
<path opacity="0.75" d="M35.4005 24.095L33.0322 15.8555H34.6506L36.2295 21.9067H36.3084L37.8873 15.8555H39.5112L41.0788 21.8778H41.1578L42.7253 15.8555H44.3437L41.981 24.095H40.3853L38.75 18.142H38.626L36.9963 24.095H35.4005Z" fill="#F2F4F8"/>
<path opacity="0.75" d="M49.0521 24.2628C48.3356 24.2844 47.6271 24.1025 47.0052 23.7374C46.4337 23.3899 45.9748 22.8779 45.6858 22.265C45.3612 21.5679 45.2009 20.8026 45.2178 20.0305C45.2028 19.2586 45.363 18.4937 45.6858 17.7959C45.9708 17.1786 46.4204 16.6561 46.9827 16.2888C47.57 15.9181 48.2496 15.7296 48.9394 15.7461C49.389 15.7439 49.8355 15.8221 50.2588 15.9771C50.6788 16.1365 51.0626 16.3821 51.3866 16.6988C51.7439 17.0593 52.0175 17.4974 52.1873 17.9807C52.3976 18.5922 52.4969 19.238 52.4805 19.8861V20.4635H46.0805V19.2625H50.9468C50.9586 18.8618 50.8713 18.4646 50.693 18.1077C50.5326 17.7879 50.2886 17.52 49.9882 17.334C49.6681 17.1388 49.3005 17.0407 48.9281 17.0511C48.5289 17.0461 48.137 17.1605 47.8003 17.3801C47.4801 17.5928 47.2197 17.8874 47.0447 18.2347C46.8682 18.5927 46.7774 18.9885 46.7797 19.3895V20.325C46.7654 20.8113 46.864 21.294 47.0673 21.7338C47.2423 22.1034 47.5211 22.411 47.868 22.6172C48.233 22.825 48.6459 22.9287 49.0634 22.9175C49.3414 22.9227 49.6182 22.8777 49.881 22.7846C50.1172 22.703 50.3329 22.569 50.5126 22.392C50.6959 22.2123 50.835 21.9907 50.9186 21.7453L52.4016 22.0167C52.287 22.4489 52.07 22.8456 51.7701 23.1715C51.4539 23.5122 51.0691 23.7782 50.6423 23.951C50.1366 24.1583 49.5968 24.2641 49.0521 24.2628Z" fill="#F2F4F8"/>
<path opacity="0.75" d="M54.2512 24.0948V15.8553H55.7737V17.1602H55.8583C55.9956 16.7322 56.2697 16.364 56.6365 16.1152C57.0088 15.8566 57.4497 15.7215 57.8996 15.7283H58.2492C58.3548 15.7321 58.4603 15.7418 58.5649 15.7572V17.2931C58.4559 17.2627 58.3446 17.2414 58.2322 17.2295C58.0716 17.2065 57.9095 17.1949 57.7473 17.1949C57.4044 17.1896 57.0654 17.2709 56.7605 17.4316C56.4794 17.5868 56.2438 17.816 56.0782 18.0956C55.9051 18.3812 55.817 18.7123 55.8245 19.0483V24.0833L54.2512 24.0948Z" fill="#F2F4F8"/>
<path opacity="0.75" d="M63.1041 24.2625C62.3876 24.2835 61.6793 24.1017 61.0572 23.7371C60.4857 23.3896 60.0268 22.8776 59.7378 22.2647C59.4152 21.5671 59.2568 20.8018 59.2754 20.0302C59.2587 19.2587 59.417 18.4939 59.7378 17.7956C60.0267 17.1791 60.4778 16.6571 61.0403 16.2886C61.627 15.9163 62.3071 15.7276 62.997 15.7458C63.4465 15.7446 63.8929 15.8228 64.3165 15.9768C64.7362 16.1369 65.1198 16.3825 65.4443 16.6986C65.8034 17.0575 66.0773 17.496 66.245 17.9804C66.4552 18.5919 66.5546 19.2377 66.5382 19.8858V20.4632H60.1438V19.2622H65.0044C65.0151 18.8623 64.9299 18.4658 64.7563 18.1074C64.5942 17.7888 64.3506 17.5214 64.0514 17.3337C63.729 17.1392 63.3598 17.0412 62.9857 17.0508C62.5865 17.0458 62.1946 17.1602 61.8579 17.3799C61.5395 17.5929 61.281 17.8875 61.108 18.2344C60.929 18.5914 60.838 18.9879 60.843 19.3892V20.3247C60.8299 20.8102 60.9264 21.2923 61.1249 21.7335C61.2999 22.1031 61.5787 22.4107 61.9256 22.6169C62.2929 22.8242 62.7074 22.9278 63.1267 22.9172C63.4029 22.9229 63.6779 22.8778 63.9387 22.7843C64.1756 22.7043 64.3916 22.5701 64.5702 22.3917C64.7532 22.2106 64.8939 21.9896 64.9819 21.7451L66.4649 22.0164C66.3482 22.449 66.1293 22.8456 65.8277 23.1712C65.5135 23.5142 65.1281 23.7806 64.6999 23.9507C64.1925 24.1587 63.6507 24.2646 63.1041 24.2625Z" fill="#F2F4F8"/>
<path opacity="0.75" d="M71.3027 24.2568C70.6868 24.2659 70.0823 24.087 69.566 23.7429C69.0399 23.3799 68.6254 22.8712 68.3706 22.2763C68.064 21.548 67.9177 20.7594 67.942 19.9667C67.9164 19.1733 68.0648 18.3841 68.3762 17.6571C68.6374 17.0659 69.0556 16.5618 69.5829 16.2021C70.0994 15.8644 70.7014 15.6897 71.314 15.6997C71.7305 15.6819 72.1449 15.7691 72.5207 15.9538C72.7948 16.0951 73.0384 16.2915 73.2369 16.5312C73.381 16.7143 73.5129 16.9072 73.6316 17.1086H73.7275V13.0264H75.2894V23.997H73.7613V22.7151H73.6316C73.5104 22.9177 73.3747 23.1107 73.2256 23.2925C73.0245 23.5342 72.7768 23.7307 72.4982 23.8699C72.1378 24.0997 71.7266 24.2328 71.3027 24.2568ZM71.6523 22.8884C72.0579 22.8968 72.4547 22.7668 72.7801 22.5188C73.1062 22.2535 73.3525 21.8992 73.4906 21.4968C73.6623 21.0083 73.7445 20.4915 73.7331 19.9725C73.7437 19.461 73.6614 18.952 73.4906 18.4712C73.3535 18.0747 73.109 17.7262 72.7858 17.4666C72.4574 17.2258 72.0618 17.1002 71.658 17.1086C71.2333 17.0937 70.8161 17.226 70.4739 17.4839C70.1507 17.7533 69.9067 18.109 69.769 18.5117C69.601 18.9792 69.5188 19.4744 69.5265 19.9725C69.5206 20.4798 69.6027 20.9843 69.769 21.4622C69.9096 21.8696 70.1575 22.2293 70.4851 22.5015C70.8184 22.7657 71.2312 22.9025 71.6523 22.8884Z" fill="#F2F4F8"/>
<path opacity="0.75" d="M81.5598 24.0952V13.1245H83.1274V17.2068H83.2176C83.3344 17.0041 83.4664 16.8111 83.6124 16.6294C83.8086 16.3896 84.0503 16.1932 84.3228 16.052C84.6987 15.8673 85.1131 15.78 85.5296 15.7979C86.1457 15.7886 86.7511 15.9632 87.2719 16.3002C87.7972 16.6608 88.2133 17.1649 88.473 17.7553C88.7845 18.4823 88.9328 19.2715 88.9072 20.0649C88.9328 20.8583 88.7845 21.6475 88.473 22.3745C88.2182 22.9694 87.8037 23.4781 87.2776 23.8411C86.7637 24.1858 86.1607 24.3648 85.5465 24.355C85.1337 24.3717 84.7232 24.2844 84.351 24.1009C84.0724 23.9617 83.8248 23.7652 83.6236 23.5235C83.4745 23.3417 83.3388 23.1487 83.2176 22.9461H83.0879V24.228L81.5598 24.0952ZM83.0936 19.9725C83.0838 20.4919 83.168 21.0087 83.3417 21.4969C83.4798 21.8993 83.7261 22.2536 84.0522 22.5189C84.3768 22.7684 84.7741 22.8986 85.18 22.8884C85.6031 22.9039 86.0181 22.767 86.3528 22.5015C86.6805 22.2293 86.9283 21.8697 87.0689 21.4622C87.2353 20.9843 87.3174 20.4799 87.3114 19.9725C87.3187 19.475 87.2385 18.9802 87.0746 18.5117C86.9337 18.1077 86.6858 17.7518 86.3585 17.4839C86.0179 17.2268 85.6028 17.0946 85.18 17.1086C84.7762 17.1002 84.3806 17.2258 84.0522 17.4666C83.7257 17.7243 83.4789 18.0732 83.3417 18.4713C83.1689 18.9516 83.0848 19.4607 83.0936 19.9725Z" fill="#F2F4F8"/>
<path opacity="0.75" d="M91.3713 27.1669C91.1577 27.1666 90.9445 27.1473 90.7341 27.1091C90.5879 27.0825 90.4444 27.0419 90.3056 26.9878L90.6833 25.6713C91.034 25.7832 91.4097 25.7832 91.7604 25.6713C92.0536 25.5732 92.3243 25.2557 92.4991 24.7187L92.6908 24.1759L89.7473 15.8267H91.439L93.4746 22.2185H93.5592L95.5948 15.8267H97.2864L93.9595 25.1575C93.831 25.5451 93.6405 25.908 93.3956 26.2315C93.1683 26.5176 92.8786 26.7449 92.5498 26.8954C92.1821 27.076 91.7791 27.1689 91.3713 27.1669Z" fill="#F2F4F8"/>
</g>
<defs>
<radialGradient id="paint0_radial" cx="0" cy="0" r="1" gradientUnits="userSpaceOnUse" gradientTransform="translate(166.828 8.74156) rotate(167.007) scale(23.4788 28.7382)">
<stop stop-color="white"/>
<stop offset="0.12" stop-color="white" stop-opacity="0.95"/>
<stop offset="1" stop-color="white" stop-opacity="0"/>
</radialGradient>
<linearGradient id="paint1_linear" x1="164.462" y1="15.7401" x2="164.462" y2="29.5054" gradientUnits="userSpaceOnUse">
<stop stop-color="white"/>
<stop offset="1" stop-color="white" stop-opacity="0.5"/>
</linearGradient>
<linearGradient id="paint2_linear" x1="167.653" y1="15.405" x2="167.653" y2="35.3831" gradientUnits="userSpaceOnUse">
<stop stop-color="white"/>
<stop offset="1" stop-color="white" stop-opacity="0"/>
</linearGradient>
</defs>
</svg>
