<svg xmlns="http://www.w3.org/2000/svg" xmlns:xlink="http://www.w3.org/1999/xlink" viewBox="0 0 511.69 511.69"><defs><style>.cls-1,.cls-7{fill:#fff;}.cls-1{opacity:0;}.cls-2{fill:#fff6e9;}.cls-3{fill:url(#radial-gradient);}.cls-4{fill:url(#radial-gradient-2);}.cls-5{fill:url(#radial-gradient-3);}.cls-6{fill:url(#radial-gradient-4);}</style><radialGradient id="radial-gradient" cx="179.79" cy="324.54" r="181.46" gradientUnits="userSpaceOnUse"><stop offset="0" stop-color="#d0f4f7"/><stop offset="1" stop-color="#69a8fb"/></radialGradient><radialGradient id="radial-gradient-2" cx="114.05" cy="74.33" r="131.94" gradientUnits="userSpaceOnUse"><stop offset="0.36" stop-color="#ffe8a8"/><stop offset="0.91" stop-color="#fdb078"/></radialGradient><radialGradient id="radial-gradient-3" cx="138.74" cy="106.77" r="109.31" gradientUnits="userSpaceOnUse"><stop offset="0.19" stop-color="#ffd0a8"/><stop offset="0.91" stop-color="#fdb0c0"/></radialGradient><radialGradient id="radial-gradient-4" cx="184.09" cy="106.59" r="240.56" gradientUnits="userSpaceOnUse"><stop offset="0" stop-color="#fdb0a7"/><stop offset="0.21" stop-color="#faaba6"/><stop offset="0.48" stop-color="#f39ba5"/><stop offset="0.77" stop-color="#e682a2"/><stop offset="1" stop-color="#da68a0"/></radialGradient></defs><title>Sorbet Logo_2</title><g id="Layer_2" data-name="Layer 2"><g id="Layer_1-2" data-name="Layer 1"><rect class="cls-1" width="511.69" height="511.69"/><path class="cls-2" d="M254,68.77a163.36,163.36,0,1,0,115.52,47.84A162.88,162.88,0,0,0,254,68.77Z"/><path class="cls-3" d="M406.45,306.24H101.59a8.41,8.41,0,0,0-7.29,12.57,182.89,182.89,0,0,0,148.21,93.37,8.34,8.34,0,0,1,7.77,8.35h0a8.36,8.36,0,0,1-8.12,8.38c-31.48.82-59,4.83-77.14,10.69-9.11,2.95-7,16.39,2.58,16.39H340.45c9.58,0,11.69-13.44,2.58-16.39-18.1-5.86-45.67-9.87-77.14-10.69a8.36,8.36,0,0,1-8.12-8.38h0a8.34,8.34,0,0,1,7.77-8.35,182.89,182.89,0,0,0,148.21-93.37A8.42,8.42,0,0,0,406.45,306.24Z"/><circle class="cls-4" cx="143.98" cy="111.26" r="76.29"/><path class="cls-5" d="M101.21,174.4A76.25,76.25,0,0,0,210.84,74.6a163.21,163.21,0,0,0-109.63,99.8Z"/><path class="cls-6" d="M417.39,232.13a163,163,0,0,0-54-121.38c-61.67-55.71-157-55.71-218.71,0a163.25,163.25,0,0,0-43.95,64.82c-10.12,27.48,10.9,56.56,40.19,56.56h14.37a37.45,37.45,0,0,1,37.45,37.45V302a37.44,37.44,0,0,0,37.44,37.44h0A37.44,37.44,0,0,0,267.61,302V269.58a37.45,37.45,0,0,1,37.45-37.45h0a37.45,37.45,0,0,1,37.44,37.45v69.81A37.45,37.45,0,0,0,380,376.84h0a37.45,37.45,0,0,0,37.44-37.45V232.13Z"/><path class="cls-7" d="M136.86,187.39l-.37-.13a10,10,0,0,1-5.69-13.4,140.86,140.86,0,0,1,75.45-71.58,9.94,9.94,0,0,1,13.08,6.39h0a10.07,10.07,0,0,1-5.75,12.37,120.58,120.58,0,0,0-64.41,61.11A9.82,9.82,0,0,1,136.86,187.39Z"/></g></g></svg>