<svg xmlns="http://www.w3.org/2000/svg" xmlns:xlink="http://www.w3.org/1999/xlink" viewBox="0 0 1666.29 512"><defs><style>.cls-1,.cls-8{fill:#fff;}.cls-1{opacity:0;}.cls-2{fill:#bf68a8;}.cls-3{fill:#fff6e9;}.cls-4{fill:url(#radial-gradient);}.cls-5{fill:url(#radial-gradient-2);}.cls-6{fill:url(#radial-gradient-3);}.cls-7{fill:url(#radial-gradient-4);}</style><radialGradient id="radial-gradient" cx="232.34" cy="310.86" r="144.92" gradientUnits="userSpaceOnUse"><stop offset="0" stop-color="#d0f4f7"/><stop offset="1" stop-color="#69a8fb"/></radialGradient><radialGradient id="radial-gradient-2" cx="179.84" cy="111.04" r="105.37" gradientUnits="userSpaceOnUse"><stop offset="0.36" stop-color="#ffe8a8"/><stop offset="0.91" stop-color="#fdb078"/></radialGradient><radialGradient id="radial-gradient-3" cx="199.56" cy="136.95" r="87.3" gradientUnits="userSpaceOnUse"><stop offset="0.19" stop-color="#ffd0a8"/><stop offset="0.91" stop-color="#fdb0c0"/></radialGradient><radialGradient id="radial-gradient-4" cx="235.78" cy="136.81" r="192.11" gradientUnits="userSpaceOnUse"><stop offset="0" stop-color="#fdb0a7"/><stop offset="0.21" stop-color="#faaba6"/><stop offset="0.48" stop-color="#f39ba5"/><stop offset="0.77" stop-color="#e682a2"/><stop offset="1" stop-color="#da68a0"/></radialGradient></defs><title>Sorbet Finance Logo_2</title><g id="Layer_2" data-name="Layer 2"><g id="Layer_1-2" data-name="Layer 1"><rect class="cls-1" width="1666.29" height="512"/><path class="cls-2" d="M563.18,230.76a13.67,13.67,0,0,0-5.87-10.21c-3.46-2.43-7.93-3.65-13.44-3.65a25.7,25.7,0,0,0-10,1.75,14.73,14.73,0,0,0-6.36,4.76,11.63,11.63,0,0,0-2.25,6.85,10.25,10.25,0,0,0,1.48,5.55,12.67,12.67,0,0,0,4,4,28.17,28.17,0,0,0,5.65,2.73,61.87,61.87,0,0,0,6.25,1.85l9.61,2.4a67.36,67.36,0,0,1,11.18,3.65,40,40,0,0,1,9.65,5.8,25.91,25.91,0,0,1,6.78,8.46,25.39,25.39,0,0,1,2.5,11.6,27.64,27.64,0,0,1-4.6,15.84,30.24,30.24,0,0,1-13.28,10.65q-8.68,3.83-21,3.83-12,0-20.74-3.7a30.78,30.78,0,0,1-13.71-10.81q-4.94-7.09-5.33-17.31h18.26a15.59,15.59,0,0,0,3.3,8.91,17.54,17.54,0,0,0,7.58,5.3,29.67,29.67,0,0,0,10.49,1.75,28.67,28.67,0,0,0,10.62-1.82,16.84,16.84,0,0,0,7.18-5.11,12.15,12.15,0,0,0,2.65-7.68,9.82,9.82,0,0,0-2.35-6.62,17.53,17.53,0,0,0-6.43-4.41,65.12,65.12,0,0,0-9.63-3.17l-11.65-3q-12.66-3.24-20-9.88t-7.33-17.63a26.36,26.36,0,0,1,4.93-15.86A32.48,32.48,0,0,1,524.86,205a47,47,0,0,1,19.26-3.77A45.46,45.46,0,0,1,563.26,205a31.43,31.43,0,0,1,12.93,10.46A26.83,26.83,0,0,1,581,230.76Z"/><path class="cls-2" d="M631.67,306.55q-11.25,0-19.51-4.95a33.47,33.47,0,0,1-12.78-13.86,50.18,50.18,0,0,1,0-41.67,33.42,33.42,0,0,1,12.78-13.91q8.25-4.95,19.51-4.95t19.51,4.95A33.42,33.42,0,0,1,664,246.07a50.18,50.18,0,0,1,0,41.67,33.47,33.47,0,0,1-12.78,13.86Q642.93,306.55,631.67,306.55Zm.1-14.51a15.5,15.5,0,0,0,10.2-3.37,20.22,20.22,0,0,0,6.13-9.08,41,41,0,0,0,0-25.49A20.33,20.33,0,0,0,642,245a15.42,15.42,0,0,0-10.2-3.41A15.77,15.77,0,0,0,621.39,245a20.28,20.28,0,0,0-6.15,9.13,41,41,0,0,0,0,25.49,20.18,20.18,0,0,0,6.15,9.08A15.85,15.85,0,0,0,631.77,292Z"/><path class="cls-2" d="M683.8,305.05V228.21h17.56V241h.79a19.3,19.3,0,0,1,7.23-10.29,19.86,19.86,0,0,1,11.73-3.62c1,0,2.13,0,3.38.12a25.52,25.52,0,0,1,3.13.38v16.66a20,20,0,0,0-3.63-.73,36,36,0,0,0-4.77-.32,18.38,18.38,0,0,0-8.88,2.12,15.89,15.89,0,0,0-6.18,5.88,16.51,16.51,0,0,0-2.25,8.66v45.17Z"/><path class="cls-2" d="M740.47,305.05V202.6h18.11v38.32h.75a33.87,33.87,0,0,1,3.95-6,21.35,21.35,0,0,1,6.91-5.46,24,24,0,0,1,11.1-2.27,29.61,29.61,0,0,1,16.09,4.52,31.29,31.29,0,0,1,11.4,13.36q4.23,8.83,4.23,21.64t-4.15,21.51a31.65,31.65,0,0,1-11.31,13.51,29.08,29.08,0,0,1-16.21,4.65,24.12,24.12,0,0,1-11-2.2,21.91,21.91,0,0,1-7-5.33,33,33,0,0,1-4.08-5.93h-1.05v12.11Zm17.76-38.42a36.68,36.68,0,0,0,2.13,13.06,19.51,19.51,0,0,0,6.15,8.73,15.49,15.49,0,0,0,9.78,3.12,15.67,15.67,0,0,0,10.06-3.22,19.72,19.72,0,0,0,6.12-8.86,40.52,40.52,0,0,0,0-25.54,19.1,19.1,0,0,0-6.1-8.7,17.62,17.62,0,0,0-20-.1,18.47,18.47,0,0,0-6.13,8.55A36.55,36.55,0,0,0,758.23,266.63Z"/><path class="cls-2" d="M862.49,306.55q-11.57,0-19.94-4.83A32.27,32.27,0,0,1,829.67,288q-4.5-8.88-4.5-20.93a45.55,45.55,0,0,1,4.53-20.84,34,34,0,0,1,12.68-14,35.67,35.67,0,0,1,19.16-5A39.58,39.58,0,0,1,875,229.48a30.82,30.82,0,0,1,11.2,7,33,33,0,0,1,7.68,12.09,48.71,48.71,0,0,1,2.8,17.43v5.55h-63V259.37H879.3a19.76,19.76,0,0,0-2.25-9.27,16.49,16.49,0,0,0-6.13-6.43,17.41,17.41,0,0,0-9.13-2.35A17.79,17.79,0,0,0,852,244a18.69,18.69,0,0,0-6.53,7,20.05,20.05,0,0,0-2.37,9.47v10.66a24.79,24.79,0,0,0,2.45,11.48,17.31,17.31,0,0,0,6.85,7.31,20.38,20.38,0,0,0,10.31,2.52,21.46,21.46,0,0,0,7.15-1.12,15.5,15.5,0,0,0,5.55-3.33,13.81,13.81,0,0,0,3.55-5.45l16.92,1.9a26.39,26.39,0,0,1-6.08,11.68,29.58,29.58,0,0,1-11.43,7.7A43.31,43.31,0,0,1,862.49,306.55Z"/><path class="cls-2" d="M950.33,228.21v14H906.16v-14ZM917.06,209.8h18.11v72.14a11.24,11.24,0,0,0,1.13,5.58,5.8,5.8,0,0,0,3,2.62,11.42,11.42,0,0,0,4.1.7,17.77,17.77,0,0,0,3.12-.25c1-.16,1.68-.31,2.18-.45l3.05,14.16a40.88,40.88,0,0,1-4.13,1.1,34.57,34.57,0,0,1-6.52.7A29.27,29.27,0,0,1,928.82,304a18.66,18.66,0,0,1-8.63-7.08,21,21,0,0,1-3.13-12Z"/><path class="cls-2" d="M1001.25,305.05V202.6h65.64v15.55h-47.07V246h42.57v15.56h-42.57v43.52Z"/><path class="cls-2" d="M1092.05,217.3a10.52,10.52,0,0,1-7.43-2.87,9.38,9.38,0,0,1,0-13.91,10.92,10.92,0,0,1,14.78,0,9.39,9.39,0,0,1,0,13.91A10.45,10.45,0,0,1,1092.05,217.3Zm-9.1,87.75V228.21h18.11v76.84Z"/><path class="cls-2" d="M1137.78,260v45h-18.12V228.21H1137v13.06h.9a21.91,21.91,0,0,1,8.48-10.26q5.84-3.8,14.44-3.8a27.38,27.38,0,0,1,13.88,3.4,23.1,23.1,0,0,1,9.2,9.85q3.29,6.47,3.23,15.66v48.93H1169V258.92q0-7.7-4-12.05t-11-4.35a16.88,16.88,0,0,0-8.43,2.07,14.55,14.55,0,0,0-5.75,6A19.94,19.94,0,0,0,1137.78,260Z"/><path class="cls-2" d="M1227.67,306.6a31.61,31.61,0,0,1-13.13-2.63,21.08,21.08,0,0,1-9.2-7.77,22.66,22.66,0,0,1-3.38-12.71,21.69,21.69,0,0,1,2.4-10.76,18.65,18.65,0,0,1,6.55-6.8,33.85,33.85,0,0,1,9.38-3.88,77,77,0,0,1,10.83-1.92q6.77-.7,11-1.28a15.83,15.83,0,0,0,6.13-1.8,4.22,4.22,0,0,0,1.92-3.83v-.3q0-5.65-3.35-8.75t-9.65-3.1q-6.66,0-10.53,2.9a14.31,14.31,0,0,0-5.23,6.85l-16.91-2.4a27.2,27.2,0,0,1,6.6-11.73,29.2,29.2,0,0,1,11.26-7.11,43.6,43.6,0,0,1,14.71-2.37,47.73,47.73,0,0,1,11,1.3,31.63,31.63,0,0,1,10.06,4.27,22.07,22.07,0,0,1,7.33,8.09,26.44,26.44,0,0,1,2.77,12.75v51.43h-17.41V294.49h-.6a21.78,21.78,0,0,1-12.08,10.43A29.73,29.73,0,0,1,1227.67,306.6Zm4.7-13.31a19.52,19.52,0,0,0,9.46-2.17,15.91,15.91,0,0,0,6.18-5.78,14.91,14.91,0,0,0,2.17-7.85v-9.06a8.34,8.34,0,0,1-2.87,1.3,42.42,42.42,0,0,1-4.53,1c-1.67.3-3.32.57-5,.8l-4.26.6a31.91,31.91,0,0,0-7.25,1.8,12.25,12.25,0,0,0-5,3.48,9.7,9.7,0,0,0,1.8,13.28A15.86,15.86,0,0,0,1232.37,293.29Z"/><path class="cls-2" d="M1304.61,260v45H1286.5V228.21h17.31v13.06h.9a21.91,21.91,0,0,1,8.48-10.26q5.82-3.8,14.43-3.8a27.38,27.38,0,0,1,13.88,3.4,23.12,23.12,0,0,1,9.21,9.85,34,34,0,0,1,3.23,15.66v48.93h-18.11V258.92q0-7.7-4-12.05t-11-4.35a16.88,16.88,0,0,0-8.43,2.07,14.55,14.55,0,0,0-5.75,6A19.82,19.82,0,0,0,1304.61,260Z"/><path class="cls-2" d="M1405.91,306.55q-11.51,0-19.73-5.05a33.55,33.55,0,0,1-12.66-14,50,50,0,0,1,.08-41.28,33.72,33.72,0,0,1,12.73-14q8.24-5,19.48-5a38.37,38.37,0,0,1,16.59,3.42,28.06,28.06,0,0,1,16.43,24.19h-17.31a16.8,16.8,0,0,0-5-9.28q-3.93-3.72-10.49-3.72a16.46,16.46,0,0,0-9.75,3,19.28,19.28,0,0,0-6.53,8.53,34.38,34.38,0,0,0-2.32,13.31,35.42,35.42,0,0,0,2.3,13.48,19.47,19.47,0,0,0,6.47,8.66,17.59,17.59,0,0,0,17,1.5,14.25,14.25,0,0,0,5.33-4.43,17.16,17.16,0,0,0,3-7h17.31a30,30,0,0,1-4.8,14.43,28.22,28.22,0,0,1-11.31,9.8A37.61,37.61,0,0,1,1405.91,306.55Z"/><path class="cls-2" d="M1487.76,306.55q-11.57,0-19.94-4.83A32.27,32.27,0,0,1,1454.94,288q-4.5-8.88-4.5-20.93a45.55,45.55,0,0,1,4.53-20.84,34,34,0,0,1,12.68-14,35.67,35.67,0,0,1,19.16-5,39.58,39.58,0,0,1,13.43,2.27,30.82,30.82,0,0,1,11.2,7,33,33,0,0,1,7.68,12.09,48.71,48.71,0,0,1,2.8,17.43v5.55h-63V259.37h45.63a19.64,19.64,0,0,0-2.26-9.27,16.39,16.39,0,0,0-6.12-6.43,17.43,17.43,0,0,0-9.13-2.35,17.79,17.79,0,0,0-9.76,2.67,18.69,18.69,0,0,0-6.53,7,20.05,20.05,0,0,0-2.37,9.47v10.66a24.79,24.79,0,0,0,2.45,11.48,17.31,17.31,0,0,0,6.85,7.31,20.38,20.38,0,0,0,10.31,2.52,21.46,21.46,0,0,0,7.15-1.12,15.5,15.5,0,0,0,5.55-3.33,13.92,13.92,0,0,0,3.55-5.45l16.91,1.9a26.27,26.27,0,0,1-6.07,11.68,29.58,29.58,0,0,1-11.43,7.7A43.35,43.35,0,0,1,1487.76,306.55Z"/><path class="cls-3" d="M291.62,106.6a130.47,130.47,0,1,0,92.26,38.21,130.05,130.05,0,0,0-92.26-38.21Z"/><path class="cls-4" d="M413.36,296.25H169.89a6.72,6.72,0,0,0-5.83,10,146.05,146.05,0,0,0,118.37,74.57,6.67,6.67,0,0,1,6.21,6.67h0a6.7,6.7,0,0,1-6.49,6.7c-25.14.65-47.15,3.85-61.61,8.53-7.27,2.36-5.59,13.09,2.06,13.09h138c7.65,0,9.33-10.73,2.06-13.09-14.46-4.68-36.47-7.88-61.61-8.53a6.7,6.7,0,0,1-6.49-6.7h0a6.67,6.67,0,0,1,6.21-6.67,146.07,146.07,0,0,0,118.37-74.57A6.72,6.72,0,0,0,413.36,296.25Z"/><circle class="cls-5" cx="203.74" cy="140.53" r="60.93"/><path class="cls-6" d="M169.58,191a60.89,60.89,0,0,0,87.56-79.7A130.41,130.41,0,0,0,169.58,191Z"/><path class="cls-7" d="M422.09,237.06A130.14,130.14,0,0,0,379,140.13c-49.25-44.5-125.42-44.5-174.66,0a130.29,130.29,0,0,0-35.11,51.76c-8.08,22,8.71,45.17,32.1,45.17h11.48A29.91,29.91,0,0,1,242.67,267v25.85a29.91,29.91,0,0,0,29.9,29.91h0a29.91,29.91,0,0,0,29.91-29.91V267a29.91,29.91,0,0,1,29.9-29.91h0A29.9,29.9,0,0,1,362.28,267v55.76a29.91,29.91,0,0,0,29.91,29.9h0a29.9,29.9,0,0,0,29.9-29.9V237.06Z"/><path class="cls-8" d="M198.05,201.33l-.29-.1a8,8,0,0,1-4.54-10.71,112.49,112.49,0,0,1,60.25-57.16,7.93,7.93,0,0,1,10.44,5.1h0a8,8,0,0,1-4.6,9.88,96.25,96.25,0,0,0-51.43,48.81A7.85,7.85,0,0,1,198.05,201.33Z"/></g></g></svg>