<svg xmlns="http://www.w3.org/2000/svg" xmlns:xlink="http://www.w3.org/1999/xlink" viewBox="0 0 190.18 70.56"><defs><style>.cls-1{fill:url(#linear-gradient);}.cls-2{fill:url(#radial-gradient);}.cls-3{opacity:0.7;isolation:isolate;fill:url(#linear-gradient-2);}.cls-4{fill:url(#linear-gradient-3);}.cls-5{fill:#1c0008;}</style><linearGradient id="linear-gradient" y1="35.28" x2="190.18" y2="35.28" gradientUnits="userSpaceOnUse"><stop offset="0.01" stop-color="#ffd0a8"/><stop offset="0.22" stop-color="#ffc4a4"/><stop offset="0.61" stop-color="#ffa498"/><stop offset="1" stop-color="#ff7d8a"/></linearGradient><radialGradient id="radial-gradient" cx="470.57" cy="-2054.06" r="0.25" gradientTransform="matrix(-185.47, 41.8, -50.08, -222.22, -15548.71, -476106.33)" gradientUnits="userSpaceOnUse"><stop offset="0"/><stop offset="0.12" stop-color="#1c0008"/><stop offset="1" stop-opacity="0"/></radialGradient><linearGradient id="linear-gradient-2" x1="34.18" y1="272.88" x2="34.18" y2="300.2" gradientTransform="translate(0 -242.23)" gradientUnits="userSpaceOnUse"><stop offset="0" stop-color="#1b0008"/><stop offset="1" stop-color="#1b0008" stop-opacity="0.5"/></linearGradient><linearGradient id="linear-gradient-3" x1="40.67" y1="272.22" x2="40.67" y2="311.87" gradientTransform="translate(0 -242.23)" gradientUnits="userSpaceOnUse"><stop offset="0" stop-color="#150006"/><stop offset="1" stop-color="#1b0008" stop-opacity="0"/></linearGradient></defs><title>PoweredBy_Gelato_Salmon</title><g id="Layer_2" data-name="Layer 2"><g id="Layer_1-2" data-name="Layer 1"><rect class="cls-1" width="190.18" height="70.56" rx="4"/><path class="cls-2" d="M46.12,27a1,1,0,0,1-1,1H45a20.56,20.56,0,0,0-4.15,0,28.76,28.76,0,0,0-7.24,1.91h0l-.39.14a20.47,20.47,0,0,1-6.86,1.61,14.51,14.51,0,0,1-3.22-.29,2.57,2.57,0,0,1-2-2,12.66,12.66,0,0,1,10-14.86,12.16,12.16,0,0,1,2.41-.24A12.61,12.61,0,0,1,46.12,26.88V27Z"/><path class="cls-3" d="M22,33.3a1.18,1.18,0,0,0-1.42.89,1.17,1.17,0,0,0,.08.76L33,57.67a.54.54,0,0,0,.73.19.52.52,0,0,0,.2-.19l13.7-25.08a1.5,1.5,0,0,0-.56-2.05,1.52,1.52,0,0,0-.42-.16A18.81,18.81,0,0,0,41,30.07a27,27,0,0,0-6.78,1.85L33.9,32a22.48,22.48,0,0,1-7.53,1.75A17.2,17.2,0,0,1,22,33.3Z"/><path class="cls-4" d="M33.49,32.63A.63.63,0,0,1,33.9,32l.34-.12A27,27,0,0,1,41,30.07a18.81,18.81,0,0,1,5.65.31,1.5,1.5,0,0,1,1.14,1.79,1.52,1.52,0,0,1-.16.42L34,57.7a.52.52,0,0,1-.46.27Z"/><path class="cls-5" d="M61.42,25.33V18h2.47a2.88,2.88,0,0,1,1.41.31,2.09,2.09,0,0,1,.81.83,2.81,2.81,0,0,1,0,2.34,2,2,0,0,1-.81.84,2.84,2.84,0,0,1-1.4.31H62.14v-.78h1.74a1.93,1.93,0,0,0,.94-.21,1.16,1.16,0,0,0,.52-.55,2,2,0,0,0,0-1.57,1.23,1.23,0,0,0-.52-.54,2,2,0,0,0-1-.2H62.31V25.3Z"/><path class="cls-5" d="M74,21.68a4.44,4.44,0,0,1-.42,2A3.1,3.1,0,0,1,72.4,25a3.26,3.26,0,0,1-3.33,0,3,3,0,0,1-1.14-1.3,4.31,4.31,0,0,1-.42-2,4.31,4.31,0,0,1,.42-2,3.11,3.11,0,0,1,1.14-1.3,3.31,3.31,0,0,1,3.33,0,3.26,3.26,0,0,1,1.14,1.3A4.51,4.51,0,0,1,74,21.68Zm-.86,0a3.81,3.81,0,0,0-.31-1.6,2.26,2.26,0,0,0-.86-1,2.23,2.23,0,0,0-1.2-.34,2.29,2.29,0,0,0-1.2.34,2.24,2.24,0,0,0-.85,1,3.52,3.52,0,0,0-.31,1.6,3.52,3.52,0,0,0,.31,1.6,2.42,2.42,0,0,0,.85,1,2.28,2.28,0,0,0,1.2.33,2.22,2.22,0,0,0,1.2-.33,2.45,2.45,0,0,0,.86-1,3.8,3.8,0,0,0,.26-1.6Z"/><path class="cls-5" d="M76.77,25.33l-2-7.3h.9l1.52,6h.08l1.55-6h1l1.55,6h.07L83,18h.9l-2,7.3H81L79.4,19.48h-.06L77.73,25.3Z"/><path class="cls-5" d="M85,25.33V18h4.4v.78H85.85v2.47h3.3V22h-3.3v2.48h3.58v.79Z"/><path class="cls-5" d="M91,25.33V18h2.47a3,3,0,0,1,1.4.29,2,2,0,0,1,.82.79A2.73,2.73,0,0,1,96,20.24a2.61,2.61,0,0,1-.26,1.14,1.9,1.9,0,0,1-.81.78,3,3,0,0,1-1.4.29h-2v-.8h2a2.3,2.3,0,0,0,1-.17A1.12,1.12,0,0,0,95,21a1.74,1.74,0,0,0,.16-.75,1.83,1.83,0,0,0-.16-.77,1.24,1.24,0,0,0-.53-.51,2.23,2.23,0,0,0-1-.18H91.85V25.3Zm3.44-3.28,1.79,3.28h-1l-1.83-3.28Z"/><path class="cls-5" d="M97.39,25.33V18h4.4v.78H98.27v2.47h3.3V22h-3.3v2.48h3.58v.79Z"/><path class="cls-5" d="M105.65,25.33h-2.26V18h2.35a3.62,3.62,0,0,1,1.82.43,2.89,2.89,0,0,1,1.16,1.26,4.94,4.94,0,0,1,0,3.94,3,3,0,0,1-1.19,1.26A3.75,3.75,0,0,1,105.65,25.33Zm-1.37-.79h1.31a3,3,0,0,0,1.5-.34,2.22,2.22,0,0,0,.89-1,3.87,3.87,0,0,0,.29-1.54,3.77,3.77,0,0,0-.29-1.52,2.1,2.1,0,0,0-.86-1,2.76,2.76,0,0,0-1.43-.35h-1.41Z"/><path class="cls-5" d="M113.43,25.33V18H116a2.65,2.65,0,0,1,1.26.26,1.72,1.72,0,0,1,.74.7,2.17,2.17,0,0,1,.24,1,1.69,1.69,0,0,1-.16.77,1.39,1.39,0,0,1-.44.49,1.88,1.88,0,0,1-.58.26v.07a1.59,1.59,0,0,1,.67.24,1.76,1.76,0,0,1,.57.61,2.2,2.2,0,0,1,0,2,1.76,1.76,0,0,1-.79.69,3.23,3.23,0,0,1-1.4.26Zm.89-4.09H116a1.8,1.8,0,0,0,.72-.16,1.35,1.35,0,0,0,.51-.44,1.21,1.21,0,0,0,.19-.67,1.18,1.18,0,0,0-.33-.82,1.5,1.5,0,0,0-1.07-.34h-1.66Zm0,3.3h1.75a1.81,1.81,0,0,0,1.23-.33,1.12,1.12,0,0,0,.37-.82,1.34,1.34,0,0,0-.73-1.19,1.74,1.74,0,0,0-.83-.19h-1.79Z"/><path class="cls-5" d="M119.34,18h1l2,3.41h.09l2-3.41h1l-2.64,4.29v3H122v-3Z"/><path class="cls-5" d="M104.54,49H92.74a.36.36,0,0,0-.36.36v0a4.16,4.16,0,0,0,1.21,2.54,4,4,0,0,0,2.82,1,3.55,3.55,0,0,0,3.33-1.85.35.35,0,0,1,.31-.2h4a.37.37,0,0,1,.37.37.36.36,0,0,1,0,.11,7.79,7.79,0,0,1-2.66,3.57,8.32,8.32,0,0,1-5.19,1.6,8.9,8.9,0,0,1-4.45-1.1A7.69,7.69,0,0,1,89,52.32a9.53,9.53,0,0,1-1.11-4.65A9.8,9.8,0,0,1,89,43a7.68,7.68,0,0,1,3-3.11,9.83,9.83,0,0,1,8.9,0,7.53,7.53,0,0,1,3,3A9.09,9.09,0,0,1,105,47.32a10.39,10.39,0,0,1-.08,1.37A.36.36,0,0,1,104.54,49Zm-4.45-2.92a.37.37,0,0,0,.37-.38v0a3.32,3.32,0,0,0-1.18-2.27,4.27,4.27,0,0,0-2.89-1,4,4,0,0,0-2.72,1,4.17,4.17,0,0,0-1.27,2.26.37.37,0,0,0,.28.44h.08Z"/><path class="cls-5" d="M112.49,32.59V56.21a.36.36,0,0,1-.36.36H108.5a.36.36,0,0,1-.36-.36h0V33.6a.36.36,0,0,1,.27-.35l3.62-1a.37.37,0,0,1,.45.25A.28.28,0,0,1,112.49,32.59Z"/><path class="cls-5" d="M116.74,43a7.42,7.42,0,0,1,6.81-4.19,7.15,7.15,0,0,1,3.37.77,7.54,7.54,0,0,1,1.7,1.25.35.35,0,0,0,.51,0,.32.32,0,0,0,.1-.25h0a.35.35,0,0,1,.26-.34l3.07-.85a.36.36,0,0,1,.44.24.37.37,0,0,1,0,.11v16.2a.36.36,0,0,1-.36.36h-3.06a.36.36,0,0,1-.36-.36h0V54.78a.36.36,0,0,0-.36-.36.39.39,0,0,0-.25.1,6.37,6.37,0,0,1-1.7,1.26,7.06,7.06,0,0,1-3.4.79,7.35,7.35,0,0,1-4-1.11,8,8,0,0,1-2.78-3.15,10.23,10.23,0,0,1-1-4.68A10,10,0,0,1,116.74,43Zm11.09,2a4.26,4.26,0,0,0-1.68-1.74,4.55,4.55,0,0,0-4.5,0,4.57,4.57,0,0,0-1.7,1.68,5.57,5.57,0,0,0-.63,2.68,5.7,5.7,0,0,0,.63,2.72,4.57,4.57,0,0,0,1.68,1.78,4.26,4.26,0,0,0,2.22.63,4.45,4.45,0,0,0,2.26-.61,4.2,4.2,0,0,0,1.68-1.74,6.23,6.23,0,0,0,0-5.43Z"/><path class="cls-5" d="M143.88,42.67a.36.36,0,0,0-.36.36h0v8a1.64,1.64,0,0,0,.42,1.25,2,2,0,0,0,1.41.39h.45a.36.36,0,0,1,.36.36h0v2.91a.36.36,0,0,1-.36.36h-1.17q-5.49,0-5.49-5.33V43a.36.36,0,0,0-.36-.36h-2.4a.36.36,0,0,1-.36-.36.5.5,0,0,1,0-.12l1-2.85a.37.37,0,0,1,.34-.24h1.36a.36.36,0,0,0,.36-.36h0V35.12a.38.38,0,0,1,.26-.35l3.66-1a.37.37,0,0,1,.45.25.34.34,0,0,1,0,.1v4.62a.36.36,0,0,0,.36.36h3a.37.37,0,0,1,.37.35.25.25,0,0,1,0,.12l-1,2.85a.35.35,0,0,1-.34.25Z"/><path class="cls-5" d="M153.67,55.47a7.81,7.81,0,0,1-3.12-3.12,9.31,9.31,0,0,1-1.14-4.65A9.15,9.15,0,0,1,150.58,43a8.05,8.05,0,0,1,3.16-3.1,9.73,9.73,0,0,1,9,0,8,8,0,0,1,3.18,3.12,9,9,0,0,1,1.17,4.66,8.83,8.83,0,0,1-1.2,4.65,8.08,8.08,0,0,1-3.23,3.12,9.18,9.18,0,0,1-4.54,1.1A9,9,0,0,1,153.67,55.47Zm6.69-3.26A4.17,4.17,0,0,0,162,50.49a5.73,5.73,0,0,0,.62-2.79,5.14,5.14,0,0,0-1.29-3.76,4.25,4.25,0,0,0-3.15-1.32,4.19,4.19,0,0,0-3.12,1.32,5.28,5.28,0,0,0-1.26,3.78,5.32,5.32,0,0,0,1.23,3.77,4,4,0,0,0,3.09,1.32A4.43,4.43,0,0,0,160.36,52.21Z"/><path class="cls-5" d="M75,43.45v2.94a.34.34,0,0,0,.34.34H80a.35.35,0,0,1,.34.35.17.17,0,0,1,0,.07,6.76,6.76,0,0,1-2.23,3.6,6.69,6.69,0,0,1-4.43,1.42,7.68,7.68,0,0,1-3.87-1,6.59,6.59,0,0,1-2.59-2.72,8.73,8.73,0,0,1-1-4.13,8.61,8.61,0,0,1,1-4.07,6.51,6.51,0,0,1,2.54-2.71,7.15,7.15,0,0,1,3.73-1,6.74,6.74,0,0,1,3.32.78,5.45,5.45,0,0,1,2,1.9.34.34,0,0,0,.47.12l0,0,3.31-2.66a.35.35,0,0,0,.06-.48,9.86,9.86,0,0,0-2.29-2.08,13.23,13.23,0,0,0-13.11-.41A11.21,11.21,0,0,0,63,38.08a13.19,13.19,0,0,0,0,12.5,11.29,11.29,0,0,0,4.34,4.28,12.44,12.44,0,0,0,6.2,1.55,11.91,11.91,0,0,0,5.53-1.21,11.62,11.62,0,0,0,4-3.38,11.29,11.29,0,0,0,2-4.54V43.41a.34.34,0,0,0-.34-.34H75.34a.34.34,0,0,0-.34.34Z"/></g></g></svg>