<svg width="30" height="30" viewBox="0 0 30 30" fill="none" xmlns="http://www.w3.org/2000/svg">
<path fill-rule="evenodd" clip-rule="evenodd" d="M23.1599 11.4786C23.5504 11.8691 24.1836 11.8691 24.5741 11.4786C24.9646 11.0881 24.9646 10.4549 24.5741 10.0644L15.8026 1.29282L15.0954 0.585716L14.3883 1.29282L5.61679 10.0644C5.22626 10.4549 5.22626 11.0881 5.61679 11.4786C6.00731 11.8691 6.64048 11.8691 7.031 11.4786L14.1909 4.31868L14.1909 21.125C14.1909 21.6773 14.6386 22.125 15.1909 22.125C15.7432 22.125 16.1909 21.6773 16.1909 21.125V4.50961L23.1599 11.4786ZM1 17.9998C1.55228 17.9998 2 18.4475 2 18.9998V24.9998C2 26.6566 3.34315 27.9998 5 27.9998H25C26.6569 27.9998 28 26.6566 28 24.9998V18.9998C28 18.4475 28.4477 17.9998 29 17.9998C29.5523 17.9998 30 18.4475 30 18.9998V24.9998C30 27.7612 27.7614 29.9998 25 29.9998H5C2.23858 29.9998 0 27.7612 0 24.9998V18.9998C0 18.4475 0.447715 17.9998 1 17.9998Z" fill="white"/>
</svg>
